<mxfile host="app.diagrams.net" modified="2023-09-21T09:57:49.287Z" agent="Mozilla/5.0 (X11; Linux x86_64) AppleWebKit/537.36 (KHTML, like Gecko) Chrome/117.0.0.0 Safari/537.36" etag="9WhLYaYj5mXe5xQLzg0P" version="21.8.0" type="device">
  <diagram name="Page-1" id="UTvJ4D6-7oFovwQiLVhX">
    <mxGraphModel dx="5048" dy="2672" grid="1" gridSize="10" guides="1" tooltips="1" connect="1" arrows="1" fold="1" page="1" pageScale="1" pageWidth="850" pageHeight="1100" math="0" shadow="0">
      <root>
        <mxCell id="0" />
        <mxCell id="1" parent="0" />
        <mxCell id="IBZ0rPLe4Yo4xLdav0hi-139" value="" style="group" parent="1" vertex="1" connectable="0">
          <mxGeometry x="-1650" y="-1100" width="1180" height="930" as="geometry" />
        </mxCell>
        <mxCell id="IBZ0rPLe4Yo4xLdav0hi-69" value="&lt;font style=&quot;font-size: 8px;&quot;&gt;3 Targeted From 14&amp;nbsp;&lt;br&gt;14 in&amp;nbsp;rec_propagation_indicator&lt;br&gt;Already visited , ignore&amp;nbsp;&lt;br&gt;&amp;nbsp;&lt;/font&gt;" style="text;html=1;align=center;verticalAlign=middle;resizable=0;points=[];autosize=1;strokeColor=none;fillColor=none;" parent="IBZ0rPLe4Yo4xLdav0hi-139" vertex="1">
          <mxGeometry x="404" y="412" width="140" height="70" as="geometry" />
        </mxCell>
        <mxCell id="IBZ0rPLe4Yo4xLdav0hi-1" value="1" style="ellipse;whiteSpace=wrap;html=1;aspect=fixed;" parent="IBZ0rPLe4Yo4xLdav0hi-139" vertex="1">
          <mxGeometry x="160" y="480" width="80" height="80" as="geometry" />
        </mxCell>
        <mxCell id="IBZ0rPLe4Yo4xLdav0hi-2" value="14" style="ellipse;whiteSpace=wrap;html=1;aspect=fixed;" parent="IBZ0rPLe4Yo4xLdav0hi-139" vertex="1">
          <mxGeometry x="350" y="480" width="80" height="80" as="geometry" />
        </mxCell>
        <mxCell id="IBZ0rPLe4Yo4xLdav0hi-3" value="" style="ellipse;whiteSpace=wrap;html=1;aspect=fixed;" parent="IBZ0rPLe4Yo4xLdav0hi-139" vertex="1">
          <mxGeometry x="520" y="480" width="80" height="80" as="geometry" />
        </mxCell>
        <mxCell id="IBZ0rPLe4Yo4xLdav0hi-5" value="11" style="ellipse;whiteSpace=wrap;html=1;aspect=fixed;" parent="IBZ0rPLe4Yo4xLdav0hi-139" vertex="1">
          <mxGeometry x="450" y="620" width="80" height="80" as="geometry" />
        </mxCell>
        <mxCell id="IBZ0rPLe4Yo4xLdav0hi-6" value="2" style="ellipse;whiteSpace=wrap;html=1;aspect=fixed;" parent="IBZ0rPLe4Yo4xLdav0hi-139" vertex="1">
          <mxGeometry x="250" y="330" width="80" height="80" as="geometry" />
        </mxCell>
        <mxCell id="IBZ0rPLe4Yo4xLdav0hi-7" value="3" style="ellipse;whiteSpace=wrap;html=1;aspect=fixed;" parent="IBZ0rPLe4Yo4xLdav0hi-139" vertex="1">
          <mxGeometry x="440" y="330" width="80" height="80" as="geometry" />
        </mxCell>
        <mxCell id="IBZ0rPLe4Yo4xLdav0hi-8" value="13" style="ellipse;whiteSpace=wrap;html=1;aspect=fixed;" parent="IBZ0rPLe4Yo4xLdav0hi-139" vertex="1">
          <mxGeometry x="520" y="480" width="80" height="80" as="geometry" />
        </mxCell>
        <mxCell id="IBZ0rPLe4Yo4xLdav0hi-9" value="12" style="ellipse;whiteSpace=wrap;html=1;aspect=fixed;" parent="IBZ0rPLe4Yo4xLdav0hi-139" vertex="1">
          <mxGeometry x="710" y="480" width="80" height="80" as="geometry" />
        </mxCell>
        <mxCell id="IBZ0rPLe4Yo4xLdav0hi-10" value="8" style="ellipse;whiteSpace=wrap;html=1;aspect=fixed;" parent="IBZ0rPLe4Yo4xLdav0hi-139" vertex="1">
          <mxGeometry x="880" y="480" width="80" height="80" as="geometry" />
        </mxCell>
        <mxCell id="IBZ0rPLe4Yo4xLdav0hi-11" value="10" style="ellipse;whiteSpace=wrap;html=1;aspect=fixed;" parent="IBZ0rPLe4Yo4xLdav0hi-139" vertex="1">
          <mxGeometry x="610" y="620" width="80" height="80" as="geometry" />
        </mxCell>
        <mxCell id="IBZ0rPLe4Yo4xLdav0hi-12" value="9" style="ellipse;whiteSpace=wrap;html=1;aspect=fixed;" parent="IBZ0rPLe4Yo4xLdav0hi-139" vertex="1">
          <mxGeometry x="810" y="620" width="80" height="80" as="geometry" />
        </mxCell>
        <mxCell id="IBZ0rPLe4Yo4xLdav0hi-13" value="" style="ellipse;whiteSpace=wrap;html=1;aspect=fixed;" parent="IBZ0rPLe4Yo4xLdav0hi-139" vertex="1">
          <mxGeometry x="610" y="330" width="80" height="80" as="geometry" />
        </mxCell>
        <mxCell id="IBZ0rPLe4Yo4xLdav0hi-14" value="7" style="ellipse;whiteSpace=wrap;html=1;aspect=fixed;" parent="IBZ0rPLe4Yo4xLdav0hi-139" vertex="1">
          <mxGeometry x="800" y="330" width="80" height="80" as="geometry" />
        </mxCell>
        <mxCell id="IBZ0rPLe4Yo4xLdav0hi-23" value="6" style="ellipse;whiteSpace=wrap;html=1;aspect=fixed;" parent="IBZ0rPLe4Yo4xLdav0hi-139" vertex="1">
          <mxGeometry x="610" y="330" width="80" height="80" as="geometry" />
        </mxCell>
        <mxCell id="IBZ0rPLe4Yo4xLdav0hi-27" value="4" style="ellipse;whiteSpace=wrap;html=1;aspect=fixed;" parent="IBZ0rPLe4Yo4xLdav0hi-139" vertex="1">
          <mxGeometry x="510" y="180" width="80" height="80" as="geometry" />
        </mxCell>
        <mxCell id="IBZ0rPLe4Yo4xLdav0hi-28" value="5" style="ellipse;whiteSpace=wrap;html=1;aspect=fixed;" parent="IBZ0rPLe4Yo4xLdav0hi-139" vertex="1">
          <mxGeometry x="700" y="180" width="80" height="80" as="geometry" />
        </mxCell>
        <mxCell id="IBZ0rPLe4Yo4xLdav0hi-29" value="Fire border formation&amp;nbsp;" style="text;html=1;align=center;verticalAlign=middle;resizable=0;points=[];autosize=1;strokeColor=none;fillColor=none;" parent="IBZ0rPLe4Yo4xLdav0hi-139" vertex="1">
          <mxGeometry y="510" width="140" height="30" as="geometry" />
        </mxCell>
        <mxCell id="IBZ0rPLe4Yo4xLdav0hi-32" value="&lt;font style=&quot;font-size: 18px;&quot;&gt;&lt;br&gt;&lt;span style=&quot;border: 0px solid rgb(217, 217, 227); box-sizing: border-box; --tw-border-spacing-x:0; --tw-border-spacing-y:0; --tw-translate-x:0; --tw-translate-y:0; --tw-rotate:0; --tw-skew-x:0; --tw-skew-y:0; --tw-scale-x:1; --tw-scale-y:1; --tw-pan-x: ; --tw-pan-y: ; --tw-pinch-zoom: ; --tw-scroll-snap-strictness:proximity; --tw-gradient-from-position: ; --tw-gradient-via-position: ; --tw-gradient-to-position: ; --tw-ordinal: ; --tw-slashed-zero: ; --tw-numeric-figure: ; --tw-numeric-spacing: ; --tw-numeric-fraction: ; --tw-ring-inset: ; --tw-ring-offset-width:0px; --tw-ring-offset-color:#fff; --tw-ring-color:rgba(69,89,164,0.5); --tw-ring-offset-shadow:0 0 transparent; --tw-ring-shadow:0 0 transparent; --tw-shadow:0 0 transparent; --tw-shadow-colored:0 0 transparent; --tw-blur: ; --tw-brightness: ; --tw-contrast: ; --tw-grayscale: ; --tw-hue-rotate: ; --tw-invert: ; --tw-saturate: ; --tw-sepia: ; --tw-drop-shadow: ; --tw-backdrop-blur: ; --tw-backdrop-brightness: ; --tw-backdrop-contrast: ; --tw-backdrop-grayscale: ; --tw-backdrop-hue-rotate: ; --tw-backdrop-invert: ; --tw-backdrop-opacity: ; --tw-backdrop-saturate: ; --tw-backdrop-sepia: ; margin-bottom: 1.25em; color: rgb(55, 65, 81); font-family: SÃ¶hne, ui-sans-serif, system-ui, -apple-system, &amp;quot;Segoe UI&amp;quot;, Roboto, Ubuntu, Cantarell, &amp;quot;Noto Sans&amp;quot;, sans-serif, &amp;quot;Helvetica Neue&amp;quot;, Arial, &amp;quot;Apple Color Emoji&amp;quot;, &amp;quot;Segoe UI Emoji&amp;quot;, &amp;quot;Segoe UI Symbol&amp;quot;, &amp;quot;Noto Color Emoji&amp;quot;; background-color: rgb(247, 247, 248);&quot; class=&quot;math math-inline&quot;&gt;&lt;span style=&quot;border: 0px solid rgb(217, 217, 227); box-sizing: border-box; --tw-border-spacing-x:0; --tw-border-spacing-y:0; --tw-translate-x:0; --tw-translate-y:0; --tw-rotate:0; --tw-skew-x:0; --tw-skew-y:0; --tw-scale-x:1; --tw-scale-y:1; --tw-pan-x: ; --tw-pan-y: ; --tw-pinch-zoom: ; --tw-scroll-snap-strictness:proximity; --tw-gradient-from-position: ; --tw-gradient-via-position: ; --tw-gradient-to-position: ; --tw-ordinal: ; --tw-slashed-zero: ; --tw-numeric-figure: ; --tw-numeric-spacing: ; --tw-numeric-fraction: ; --tw-ring-inset: ; --tw-ring-offset-width:0px; --tw-ring-offset-color:#fff; --tw-ring-color:rgba(69,89,164,0.5); --tw-ring-offset-shadow:0 0 transparent; --tw-ring-shadow:0 0 transparent; --tw-shadow:0 0 transparent; --tw-shadow-colored:0 0 transparent; --tw-blur: ; --tw-brightness: ; --tw-contrast: ; --tw-grayscale: ; --tw-hue-rotate: ; --tw-invert: ; --tw-saturate: ; --tw-sepia: ; --tw-drop-shadow: ; --tw-backdrop-blur: ; --tw-backdrop-brightness: ; --tw-backdrop-contrast: ; --tw-backdrop-grayscale: ; --tw-backdrop-hue-rotate: ; --tw-backdrop-invert: ; --tw-backdrop-opacity: ; --tw-backdrop-saturate: ; --tw-backdrop-sepia: ; font-variant-numeric: normal; font-variant-east-asian: normal; font-variant-alternates: normal; font-kerning: auto; font-optical-sizing: auto; font-feature-settings: normal; font-variation-settings: normal; font-stretch: normal; line-height: 1.2; font-family: KaTeX_Main, &amp;quot;Times New Roman&amp;quot;, serif; text-rendering: auto;&quot; class=&quot;katex&quot;&gt;&lt;span style=&quot;border: 0px; box-sizing: border-box; --tw-border-spacing-x:0; --tw-border-spacing-y:0; --tw-translate-x:0; --tw-translate-y:0; --tw-rotate:0; --tw-skew-x:0; --tw-skew-y:0; --tw-scale-x:1; --tw-scale-y:1; --tw-pan-x: ; --tw-pan-y: ; --tw-pinch-zoom: ; --tw-scroll-snap-strictness:proximity; --tw-gradient-from-position: ; --tw-gradient-via-position: ; --tw-gradient-to-position: ; --tw-ordinal: ; --tw-slashed-zero: ; --tw-numeric-figure: ; --tw-numeric-spacing: ; --tw-numeric-fraction: ; --tw-ring-inset: ; --tw-ring-offset-width:0px; --tw-ring-offset-color:#fff; --tw-ring-color:rgba(69,89,164,0.5); --tw-ring-offset-shadow:0 0 transparent; --tw-ring-shadow:0 0 transparent; --tw-shadow:0 0 transparent; --tw-shadow-colored:0 0 transparent; --tw-blur: ; --tw-brightness: ; --tw-contrast: ; --tw-grayscale: ; --tw-hue-rotate: ; --tw-invert: ; --tw-saturate: ; --tw-sepia: ; --tw-drop-shadow: ; --tw-backdrop-blur: ; --tw-backdrop-brightness: ; --tw-backdrop-contrast: ; --tw-backdrop-grayscale: ; --tw-backdrop-hue-rotate: ; --tw-backdrop-invert: ; --tw-backdrop-opacity: ; --tw-backdrop-saturate: ; --tw-backdrop-sepia: ; clip: rect(1px, 1px, 1px, 1px); height: 1px; overflow: hidden; padding: 0px; position: absolute; width: 1px;&quot; class=&quot;katex-mathml&quot;&gt;&lt;math xmlns=&quot;http://www.w3.org/1998/Math/MathML&quot;&gt;&lt;mrow&gt;&lt;mo stretchy=&quot;false&quot;&gt;(&lt;/mo&gt;&lt;mi&gt;ï¿½&lt;/mi&gt;&lt;mo&gt;â©&lt;/mo&gt;&lt;mi&gt;ï¿½&lt;/mi&gt;&lt;mo stretchy=&quot;false&quot;&gt;)&lt;/mo&gt;&lt;mo&gt;âª&lt;/mo&gt;&lt;mo stretchy=&quot;false&quot;&gt;(&lt;/mo&gt;&lt;mi&gt;ï¿½&lt;/mi&gt;&lt;mo&gt;â&lt;/mo&gt;&lt;mi&gt;ï¿½&lt;/mi&gt;&lt;mo stretchy=&quot;false&quot;&gt;)&lt;/mo&gt;&lt;/mrow&gt;&lt;/math&gt;&lt;/span&gt;&lt;span style=&quot;border: 0px solid currentcolor; box-sizing: border-box; --tw-border-spacing-x:0; --tw-border-spacing-y:0; --tw-translate-x:0; --tw-translate-y:0; --tw-rotate:0; --tw-skew-x:0; --tw-skew-y:0; --tw-scale-x:1; --tw-scale-y:1; --tw-pan-x: ; --tw-pan-y: ; --tw-pinch-zoom: ; --tw-scroll-snap-strictness:proximity; --tw-gradient-from-position: ; --tw-gradient-via-position: ; --tw-gradient-to-position: ; --tw-ordinal: ; --tw-slashed-zero: ; --tw-numeric-figure: ; --tw-numeric-spacing: ; --tw-numeric-fraction: ; --tw-ring-inset: ; --tw-ring-offset-width:0px; --tw-ring-offset-color:#fff; --tw-ring-color:rgba(69,89,164,0.5); --tw-ring-offset-shadow:0 0 transparent; --tw-ring-shadow:0 0 transparent; --tw-shadow:0 0 transparent; --tw-shadow-colored:0 0 transparent; --tw-blur: ; --tw-brightness: ; --tw-contrast: ; --tw-grayscale: ; --tw-hue-rotate: ; --tw-invert: ; --tw-saturate: ; --tw-sepia: ; --tw-drop-shadow: ; --tw-backdrop-blur: ; --tw-backdrop-brightness: ; --tw-backdrop-contrast: ; --tw-backdrop-grayscale: ; --tw-backdrop-hue-rotate: ; --tw-backdrop-invert: ; --tw-backdrop-opacity: ; --tw-backdrop-saturate: ; --tw-backdrop-sepia: ;&quot; aria-hidden=&quot;true&quot; class=&quot;katex-html&quot;&gt;&lt;b&gt;new_propagation_indicator&lt;/b&gt;=&amp;nbsp;&lt;br style=&quot;border-color: var(--border-color); color: rgb(0, 0, 0); font-family: Helvetica; background-color: rgb(251, 251, 251);&quot;&gt;&lt;div style=&quot;text-align: left;&quot;&gt;&lt;span style=&quot;border: 0px solid currentcolor; box-sizing: border-box; --tw-border-spacing-x:0; --tw-border-spacing-y:0; --tw-translate-x:0; --tw-translate-y:0; --tw-rotate:0; --tw-skew-x:0; --tw-skew-y:0; --tw-scale-x:1; --tw-scale-y:1; --tw-pan-x: ; --tw-pan-y: ; --tw-pinch-zoom: ; --tw-scroll-snap-strictness:proximity; --tw-gradient-from-position: ; --tw-gradient-via-position: ; --tw-gradient-to-position: ; --tw-ordinal: ; --tw-slashed-zero: ; --tw-numeric-figure: ; --tw-numeric-spacing: ; --tw-numeric-fraction: ; --tw-ring-inset: ; --tw-ring-offset-width:0px; --tw-ring-offset-color:#fff; --tw-ring-color:rgba(69,89,164,0.5); --tw-ring-offset-shadow:0 0 transparent; --tw-ring-shadow:0 0 transparent; --tw-shadow:0 0 transparent; --tw-shadow-colored:0 0 transparent; --tw-blur: ; --tw-brightness: ; --tw-contrast: ; --tw-grayscale: ; --tw-hue-rotate: ; --tw-invert: ; --tw-saturate: ; --tw-sepia: ; --tw-drop-shadow: ; --tw-backdrop-blur: ; --tw-backdrop-brightness: ; --tw-backdrop-contrast: ; --tw-backdrop-grayscale: ; --tw-backdrop-hue-rotate: ; --tw-backdrop-invert: ; --tw-backdrop-opacity: ; --tw-backdrop-saturate: ; --tw-backdrop-sepia: ; position: relative; width: min-content; display: inline-block;&quot; class=&quot;base&quot;&gt;&lt;span style=&quot;border: 0px solid currentcolor; box-sizing: border-box; --tw-border-spacing-x:0; --tw-border-spacing-y:0; --tw-translate-x:0; --tw-translate-y:0; --tw-rotate:0; --tw-skew-x:0; --tw-skew-y:0; --tw-scale-x:1; --tw-scale-y:1; --tw-pan-x: ; --tw-pan-y: ; --tw-pinch-zoom: ; --tw-scroll-snap-strictness:proximity; --tw-gradient-from-position: ; --tw-gradient-via-position: ; --tw-gradient-to-position: ; --tw-ordinal: ; --tw-slashed-zero: ; --tw-numeric-figure: ; --tw-numeric-spacing: ; --tw-numeric-fraction: ; --tw-ring-inset: ; --tw-ring-offset-width:0px; --tw-ring-offset-color:#fff; --tw-ring-color:rgba(69,89,164,0.5); --tw-ring-offset-shadow:0 0 transparent; --tw-ring-shadow:0 0 transparent; --tw-shadow:0 0 transparent; --tw-shadow-colored:0 0 transparent; --tw-blur: ; --tw-brightness: ; --tw-contrast: ; --tw-grayscale: ; --tw-hue-rotate: ; --tw-invert: ; --tw-saturate: ; --tw-sepia: ; --tw-drop-shadow: ; --tw-backdrop-blur: ; --tw-backdrop-brightness: ; --tw-backdrop-contrast: ; --tw-backdrop-grayscale: ; --tw-backdrop-hue-rotate: ; --tw-backdrop-invert: ; --tw-backdrop-opacity: ; --tw-backdrop-saturate: ; --tw-backdrop-sepia: ;&quot; class=&quot;mopen&quot;&gt;(&lt;/span&gt;&lt;span style=&quot;border: 0px solid currentcolor; box-sizing: border-box; --tw-border-spacing-x:0; --tw-border-spacing-y:0; --tw-translate-x:0; --tw-translate-y:0; --tw-rotate:0; --tw-skew-x:0; --tw-skew-y:0; --tw-scale-x:1; --tw-scale-y:1; --tw-pan-x: ; --tw-pan-y: ; --tw-pinch-zoom: ; --tw-scroll-snap-strictness:proximity; --tw-gradient-from-position: ; --tw-gradient-via-position: ; --tw-gradient-to-position: ; --tw-ordinal: ; --tw-slashed-zero: ; --tw-numeric-figure: ; --tw-numeric-spacing: ; --tw-numeric-fraction: ; --tw-ring-inset: ; --tw-ring-offset-width:0px; --tw-ring-offset-color:#fff; --tw-ring-color:rgba(69,89,164,0.5); --tw-ring-offset-shadow:0 0 transparent; --tw-ring-shadow:0 0 transparent; --tw-shadow:0 0 transparent; --tw-shadow-colored:0 0 transparent; --tw-blur: ; --tw-brightness: ; --tw-contrast: ; --tw-grayscale: ; --tw-hue-rotate: ; --tw-invert: ; --tw-saturate: ; --tw-sepia: ; --tw-drop-shadow: ; --tw-backdrop-blur: ; --tw-backdrop-brightness: ; --tw-backdrop-contrast: ; --tw-backdrop-grayscale: ; --tw-backdrop-hue-rotate: ; --tw-backdrop-invert: ; --tw-backdrop-opacity: ; --tw-backdrop-saturate: ; --tw-backdrop-sepia: ; font-family: KaTeX_Math; font-style: italic;&quot; class=&quot;mord mathnormal&quot;&gt;A&lt;/span&gt;&lt;span style=&quot;border: 0px solid currentcolor; box-sizing: border-box; --tw-border-spacing-x:0; --tw-border-spacing-y:0; --tw-translate-x:0; --tw-translate-y:0; --tw-rotate:0; --tw-skew-x:0; --tw-skew-y:0; --tw-scale-x:1; --tw-scale-y:1; --tw-pan-x: ; --tw-pan-y: ; --tw-pinch-zoom: ; --tw-scroll-snap-strictness:proximity; --tw-gradient-from-position: ; --tw-gradient-via-position: ; --tw-gradient-to-position: ; --tw-ordinal: ; --tw-slashed-zero: ; --tw-numeric-figure: ; --tw-numeric-spacing: ; --tw-numeric-fraction: ; --tw-ring-inset: ; --tw-ring-offset-width:0px; --tw-ring-offset-color:#fff; --tw-ring-color:rgba(69,89,164,0.5); --tw-ring-offset-shadow:0 0 transparent; --tw-ring-shadow:0 0 transparent; --tw-shadow:0 0 transparent; --tw-shadow-colored:0 0 transparent; --tw-blur: ; --tw-brightness: ; --tw-contrast: ; --tw-grayscale: ; --tw-hue-rotate: ; --tw-invert: ; --tw-saturate: ; --tw-sepia: ; --tw-drop-shadow: ; --tw-backdrop-blur: ; --tw-backdrop-brightness: ; --tw-backdrop-contrast: ; --tw-backdrop-grayscale: ; --tw-backdrop-hue-rotate: ; --tw-backdrop-invert: ; --tw-backdrop-opacity: ; --tw-backdrop-saturate: ; --tw-backdrop-sepia: ; display: inline-block; margin-right: 0.2222em;&quot; class=&quot;mspace&quot;&gt;&lt;/span&gt;&lt;span style=&quot;border: 0px solid currentcolor; box-sizing: border-box; --tw-border-spacing-x:0; --tw-border-spacing-y:0; --tw-translate-x:0; --tw-translate-y:0; --tw-rotate:0; --tw-skew-x:0; --tw-skew-y:0; --tw-scale-x:1; --tw-scale-y:1; --tw-pan-x: ; --tw-pan-y: ; --tw-pinch-zoom: ; --tw-scroll-snap-strictness:proximity; --tw-gradient-from-position: ; --tw-gradient-via-position: ; --tw-gradient-to-position: ; --tw-ordinal: ; --tw-slashed-zero: ; --tw-numeric-figure: ; --tw-numeric-spacing: ; --tw-numeric-fraction: ; --tw-ring-inset: ; --tw-ring-offset-width:0px; --tw-ring-offset-color:#fff; --tw-ring-color:rgba(69,89,164,0.5); --tw-ring-offset-shadow:0 0 transparent; --tw-ring-shadow:0 0 transparent; --tw-shadow:0 0 transparent; --tw-shadow-colored:0 0 transparent; --tw-blur: ; --tw-brightness: ; --tw-contrast: ; --tw-grayscale: ; --tw-hue-rotate: ; --tw-invert: ; --tw-saturate: ; --tw-sepia: ; --tw-drop-shadow: ; --tw-backdrop-blur: ; --tw-backdrop-brightness: ; --tw-backdrop-contrast: ; --tw-backdrop-grayscale: ; --tw-backdrop-hue-rotate: ; --tw-backdrop-invert: ; --tw-backdrop-opacity: ; --tw-backdrop-saturate: ; --tw-backdrop-sepia: ;&quot; class=&quot;mbin&quot;&gt;â©&lt;/span&gt;&lt;span style=&quot;border: 0px solid currentcolor; box-sizing: border-box; --tw-border-spacing-x:0; --tw-border-spacing-y:0; --tw-translate-x:0; --tw-translate-y:0; --tw-rotate:0; --tw-skew-x:0; --tw-skew-y:0; --tw-scale-x:1; --tw-scale-y:1; --tw-pan-x: ; --tw-pan-y: ; --tw-pinch-zoom: ; --tw-scroll-snap-strictness:proximity; --tw-gradient-from-position: ; --tw-gradient-via-position: ; --tw-gradient-to-position: ; --tw-ordinal: ; --tw-slashed-zero: ; --tw-numeric-figure: ; --tw-numeric-spacing: ; --tw-numeric-fraction: ; --tw-ring-inset: ; --tw-ring-offset-width:0px; --tw-ring-offset-color:#fff; --tw-ring-color:rgba(69,89,164,0.5); --tw-ring-offset-shadow:0 0 transparent; --tw-ring-shadow:0 0 transparent; --tw-shadow:0 0 transparent; --tw-shadow-colored:0 0 transparent; --tw-blur: ; --tw-brightness: ; --tw-contrast: ; --tw-grayscale: ; --tw-hue-rotate: ; --tw-invert: ; --tw-saturate: ; --tw-sepia: ; --tw-drop-shadow: ; --tw-backdrop-blur: ; --tw-backdrop-brightness: ; --tw-backdrop-contrast: ; --tw-backdrop-grayscale: ; --tw-backdrop-hue-rotate: ; --tw-backdrop-invert: ; --tw-backdrop-opacity: ; --tw-backdrop-saturate: ; --tw-backdrop-sepia: ; display: inline-block; margin-right: 0.2222em;&quot; class=&quot;mspace&quot;&gt;&lt;/span&gt;&lt;/span&gt;&lt;span style=&quot;border: 0px solid currentcolor; box-sizing: border-box; --tw-border-spacing-x:0; --tw-border-spacing-y:0; --tw-translate-x:0; --tw-translate-y:0; --tw-rotate:0; --tw-skew-x:0; --tw-skew-y:0; --tw-scale-x:1; --tw-scale-y:1; --tw-pan-x: ; --tw-pan-y: ; --tw-pinch-zoom: ; --tw-scroll-snap-strictness:proximity; --tw-gradient-from-position: ; --tw-gradient-via-position: ; --tw-gradient-to-position: ; --tw-ordinal: ; --tw-slashed-zero: ; --tw-numeric-figure: ; --tw-numeric-spacing: ; --tw-numeric-fraction: ; --tw-ring-inset: ; --tw-ring-offset-width:0px; --tw-ring-offset-color:#fff; --tw-ring-color:rgba(69,89,164,0.5); --tw-ring-offset-shadow:0 0 transparent; --tw-ring-shadow:0 0 transparent; --tw-shadow:0 0 transparent; --tw-shadow-colored:0 0 transparent; --tw-blur: ; --tw-brightness: ; --tw-contrast: ; --tw-grayscale: ; --tw-hue-rotate: ; --tw-invert: ; --tw-saturate: ; --tw-sepia: ; --tw-drop-shadow: ; --tw-backdrop-blur: ; --tw-backdrop-brightness: ; --tw-backdrop-contrast: ; --tw-backdrop-grayscale: ; --tw-backdrop-hue-rotate: ; --tw-backdrop-invert: ; --tw-backdrop-opacity: ; --tw-backdrop-saturate: ; --tw-backdrop-sepia: ; position: relative; width: min-content; display: inline-block;&quot; class=&quot;base&quot;&gt;&lt;span style=&quot;border: 0px solid currentcolor; box-sizing: border-box; --tw-border-spacing-x:0; --tw-border-spacing-y:0; --tw-translate-x:0; --tw-translate-y:0; --tw-rotate:0; --tw-skew-x:0; --tw-skew-y:0; --tw-scale-x:1; --tw-scale-y:1; --tw-pan-x: ; --tw-pan-y: ; --tw-pinch-zoom: ; --tw-scroll-snap-strictness:proximity; --tw-gradient-from-position: ; --tw-gradient-via-position: ; --tw-gradient-to-position: ; --tw-ordinal: ; --tw-slashed-zero: ; --tw-numeric-figure: ; --tw-numeric-spacing: ; --tw-numeric-fraction: ; --tw-ring-inset: ; --tw-ring-offset-width:0px; --tw-ring-offset-color:#fff; --tw-ring-color:rgba(69,89,164,0.5); --tw-ring-offset-shadow:0 0 transparent; --tw-ring-shadow:0 0 transparent; --tw-shadow:0 0 transparent; --tw-shadow-colored:0 0 transparent; --tw-blur: ; --tw-brightness: ; --tw-contrast: ; --tw-grayscale: ; --tw-hue-rotate: ; --tw-invert: ; --tw-saturate: ; --tw-sepia: ; --tw-drop-shadow: ; --tw-backdrop-blur: ; --tw-backdrop-brightness: ; --tw-backdrop-contrast: ; --tw-backdrop-grayscale: ; --tw-backdrop-hue-rotate: ; --tw-backdrop-invert: ; --tw-backdrop-opacity: ; --tw-backdrop-saturate: ; --tw-backdrop-sepia: ; display: inline-block; height: 1em; vertical-align: -0.25em;&quot; class=&quot;strut&quot;&gt;&lt;/span&gt;&lt;span style=&quot;border: 0px solid currentcolor; box-sizing: border-box; --tw-border-spacing-x:0; --tw-border-spacing-y:0; --tw-translate-x:0; --tw-translate-y:0; --tw-rotate:0; --tw-skew-x:0; --tw-skew-y:0; --tw-scale-x:1; --tw-scale-y:1; --tw-pan-x: ; --tw-pan-y: ; --tw-pinch-zoom: ; --tw-scroll-snap-strictness:proximity; --tw-gradient-from-position: ; --tw-gradient-via-position: ; --tw-gradient-to-position: ; --tw-ordinal: ; --tw-slashed-zero: ; --tw-numeric-figure: ; --tw-numeric-spacing: ; --tw-numeric-fraction: ; --tw-ring-inset: ; --tw-ring-offset-width:0px; --tw-ring-offset-color:#fff; --tw-ring-color:rgba(69,89,164,0.5); --tw-ring-offset-shadow:0 0 transparent; --tw-ring-shadow:0 0 transparent; --tw-shadow:0 0 transparent; --tw-shadow-colored:0 0 transparent; --tw-blur: ; --tw-brightness: ; --tw-contrast: ; --tw-grayscale: ; --tw-hue-rotate: ; --tw-invert: ; --tw-saturate: ; --tw-sepia: ; --tw-drop-shadow: ; --tw-backdrop-blur: ; --tw-backdrop-brightness: ; --tw-backdrop-contrast: ; --tw-backdrop-grayscale: ; --tw-backdrop-hue-rotate: ; --tw-backdrop-invert: ; --tw-backdrop-opacity: ; --tw-backdrop-saturate: ; --tw-backdrop-sepia: ; font-family: KaTeX_Math; font-style: italic; margin-right: 0.05017em;&quot; class=&quot;mord mathnormal&quot;&gt;B&lt;/span&gt;&lt;span style=&quot;border: 0px solid currentcolor; box-sizing: border-box; --tw-border-spacing-x:0; --tw-border-spacing-y:0; --tw-translate-x:0; --tw-translate-y:0; --tw-rotate:0; --tw-skew-x:0; --tw-skew-y:0; --tw-scale-x:1; --tw-scale-y:1; --tw-pan-x: ; --tw-pan-y: ; --tw-pinch-zoom: ; --tw-scroll-snap-strictness:proximity; --tw-gradient-from-position: ; --tw-gradient-via-position: ; --tw-gradient-to-position: ; --tw-ordinal: ; --tw-slashed-zero: ; --tw-numeric-figure: ; --tw-numeric-spacing: ; --tw-numeric-fraction: ; --tw-ring-inset: ; --tw-ring-offset-width:0px; --tw-ring-offset-color:#fff; --tw-ring-color:rgba(69,89,164,0.5); --tw-ring-offset-shadow:0 0 transparent; --tw-ring-shadow:0 0 transparent; --tw-shadow:0 0 transparent; --tw-shadow-colored:0 0 transparent; --tw-blur: ; --tw-brightness: ; --tw-contrast: ; --tw-grayscale: ; --tw-hue-rotate: ; --tw-invert: ; --tw-saturate: ; --tw-sepia: ; --tw-drop-shadow: ; --tw-backdrop-blur: ; --tw-backdrop-brightness: ; --tw-backdrop-contrast: ; --tw-backdrop-grayscale: ; --tw-backdrop-hue-rotate: ; --tw-backdrop-invert: ; --tw-backdrop-opacity: ; --tw-backdrop-saturate: ; --tw-backdrop-sepia: ;&quot; class=&quot;mclose&quot;&gt;)&lt;/span&gt;&lt;span style=&quot;border: 0px solid currentcolor; box-sizing: border-box; --tw-border-spacing-x:0; --tw-border-spacing-y:0; --tw-translate-x:0; --tw-translate-y:0; --tw-rotate:0; --tw-skew-x:0; --tw-skew-y:0; --tw-scale-x:1; --tw-scale-y:1; --tw-pan-x: ; --tw-pan-y: ; --tw-pinch-zoom: ; --tw-scroll-snap-strictness:proximity; --tw-gradient-from-position: ; --tw-gradient-via-position: ; --tw-gradient-to-position: ; --tw-ordinal: ; --tw-slashed-zero: ; --tw-numeric-figure: ; --tw-numeric-spacing: ; --tw-numeric-fraction: ; --tw-ring-inset: ; --tw-ring-offset-width:0px; --tw-ring-offset-color:#fff; --tw-ring-color:rgba(69,89,164,0.5); --tw-ring-offset-shadow:0 0 transparent; --tw-ring-shadow:0 0 transparent; --tw-shadow:0 0 transparent; --tw-shadow-colored:0 0 transparent; --tw-blur: ; --tw-brightness: ; --tw-contrast: ; --tw-grayscale: ; --tw-hue-rotate: ; --tw-invert: ; --tw-saturate: ; --tw-sepia: ; --tw-drop-shadow: ; --tw-backdrop-blur: ; --tw-backdrop-brightness: ; --tw-backdrop-contrast: ; --tw-backdrop-grayscale: ; --tw-backdrop-hue-rotate: ; --tw-backdrop-invert: ; --tw-backdrop-opacity: ; --tw-backdrop-saturate: ; --tw-backdrop-sepia: ; display: inline-block; margin-right: 0.2222em;&quot; class=&quot;mspace&quot;&gt;&lt;/span&gt;&lt;span style=&quot;border: 0px solid currentcolor; box-sizing: border-box; --tw-border-spacing-x:0; --tw-border-spacing-y:0; --tw-translate-x:0; --tw-translate-y:0; --tw-rotate:0; --tw-skew-x:0; --tw-skew-y:0; --tw-scale-x:1; --tw-scale-y:1; --tw-pan-x: ; --tw-pan-y: ; --tw-pinch-zoom: ; --tw-scroll-snap-strictness:proximity; --tw-gradient-from-position: ; --tw-gradient-via-position: ; --tw-gradient-to-position: ; --tw-ordinal: ; --tw-slashed-zero: ; --tw-numeric-figure: ; --tw-numeric-spacing: ; --tw-numeric-fraction: ; --tw-ring-inset: ; --tw-ring-offset-width:0px; --tw-ring-offset-color:#fff; --tw-ring-color:rgba(69,89,164,0.5); --tw-ring-offset-shadow:0 0 transparent; --tw-ring-shadow:0 0 transparent; --tw-shadow:0 0 transparent; --tw-shadow-colored:0 0 transparent; --tw-blur: ; --tw-brightness: ; --tw-contrast: ; --tw-grayscale: ; --tw-hue-rotate: ; --tw-invert: ; --tw-saturate: ; --tw-sepia: ; --tw-drop-shadow: ; --tw-backdrop-blur: ; --tw-backdrop-brightness: ; --tw-backdrop-contrast: ; --tw-backdrop-grayscale: ; --tw-backdrop-hue-rotate: ; --tw-backdrop-invert: ; --tw-backdrop-opacity: ; --tw-backdrop-saturate: ; --tw-backdrop-sepia: ;&quot; class=&quot;mbin&quot;&gt;âª&lt;/span&gt;&lt;span style=&quot;border: 0px solid currentcolor; box-sizing: border-box; --tw-border-spacing-x:0; --tw-border-spacing-y:0; --tw-translate-x:0; --tw-translate-y:0; --tw-rotate:0; --tw-skew-x:0; --tw-skew-y:0; --tw-scale-x:1; --tw-scale-y:1; --tw-pan-x: ; --tw-pan-y: ; --tw-pinch-zoom: ; --tw-scroll-snap-strictness:proximity; --tw-gradient-from-position: ; --tw-gradient-via-position: ; --tw-gradient-to-position: ; --tw-ordinal: ; --tw-slashed-zero: ; --tw-numeric-figure: ; --tw-numeric-spacing: ; --tw-numeric-fraction: ; --tw-ring-inset: ; --tw-ring-offset-width:0px; --tw-ring-offset-color:#fff; --tw-ring-color:rgba(69,89,164,0.5); --tw-ring-offset-shadow:0 0 transparent; --tw-ring-shadow:0 0 transparent; --tw-shadow:0 0 transparent; --tw-shadow-colored:0 0 transparent; --tw-blur: ; --tw-brightness: ; --tw-contrast: ; --tw-grayscale: ; --tw-hue-rotate: ; --tw-invert: ; --tw-saturate: ; --tw-sepia: ; --tw-drop-shadow: ; --tw-backdrop-blur: ; --tw-backdrop-brightness: ; --tw-backdrop-contrast: ; --tw-backdrop-grayscale: ; --tw-backdrop-hue-rotate: ; --tw-backdrop-invert: ; --tw-backdrop-opacity: ; --tw-backdrop-saturate: ; --tw-backdrop-sepia: ; display: inline-block; margin-right: 0.2222em;&quot; class=&quot;mspace&quot;&gt;&lt;/span&gt;&lt;/span&gt;&lt;span style=&quot;border: 0px solid currentcolor; box-sizing: border-box; --tw-border-spacing-x:0; --tw-border-spacing-y:0; --tw-translate-x:0; --tw-translate-y:0; --tw-rotate:0; --tw-skew-x:0; --tw-skew-y:0; --tw-scale-x:1; --tw-scale-y:1; --tw-pan-x: ; --tw-pan-y: ; --tw-pinch-zoom: ; --tw-scroll-snap-strictness:proximity; --tw-gradient-from-position: ; --tw-gradient-via-position: ; --tw-gradient-to-position: ; --tw-ordinal: ; --tw-slashed-zero: ; --tw-numeric-figure: ; --tw-numeric-spacing: ; --tw-numeric-fraction: ; --tw-ring-inset: ; --tw-ring-offset-width:0px; --tw-ring-offset-color:#fff; --tw-ring-color:rgba(69,89,164,0.5); --tw-ring-offset-shadow:0 0 transparent; --tw-ring-shadow:0 0 transparent; --tw-shadow:0 0 transparent; --tw-shadow-colored:0 0 transparent; --tw-blur: ; --tw-brightness: ; --tw-contrast: ; --tw-grayscale: ; --tw-hue-rotate: ; --tw-invert: ; --tw-saturate: ; --tw-sepia: ; --tw-drop-shadow: ; --tw-backdrop-blur: ; --tw-backdrop-brightness: ; --tw-backdrop-contrast: ; --tw-backdrop-grayscale: ; --tw-backdrop-hue-rotate: ; --tw-backdrop-invert: ; --tw-backdrop-opacity: ; --tw-backdrop-saturate: ; --tw-backdrop-sepia: ; position: relative; width: min-content; display: inline-block;&quot; class=&quot;base&quot;&gt;&lt;span style=&quot;border: 0px solid currentcolor; box-sizing: border-box; --tw-border-spacing-x:0; --tw-border-spacing-y:0; --tw-translate-x:0; --tw-translate-y:0; --tw-rotate:0; --tw-skew-x:0; --tw-skew-y:0; --tw-scale-x:1; --tw-scale-y:1; --tw-pan-x: ; --tw-pan-y: ; --tw-pinch-zoom: ; --tw-scroll-snap-strictness:proximity; --tw-gradient-from-position: ; --tw-gradient-via-position: ; --tw-gradient-to-position: ; --tw-ordinal: ; --tw-slashed-zero: ; --tw-numeric-figure: ; --tw-numeric-spacing: ; --tw-numeric-fraction: ; --tw-ring-inset: ; --tw-ring-offset-width:0px; --tw-ring-offset-color:#fff; --tw-ring-color:rgba(69,89,164,0.5); --tw-ring-offset-shadow:0 0 transparent; --tw-ring-shadow:0 0 transparent; --tw-shadow:0 0 transparent; --tw-shadow-colored:0 0 transparent; --tw-blur: ; --tw-brightness: ; --tw-contrast: ; --tw-grayscale: ; --tw-hue-rotate: ; --tw-invert: ; --tw-saturate: ; --tw-sepia: ; --tw-drop-shadow: ; --tw-backdrop-blur: ; --tw-backdrop-brightness: ; --tw-backdrop-contrast: ; --tw-backdrop-grayscale: ; --tw-backdrop-hue-rotate: ; --tw-backdrop-invert: ; --tw-backdrop-opacity: ; --tw-backdrop-saturate: ; --tw-backdrop-sepia: ; display: inline-block; height: 1em; vertical-align: -0.25em;&quot; class=&quot;strut&quot;&gt;&lt;/span&gt;&lt;span style=&quot;border: 0px solid currentcolor; box-sizing: border-box; --tw-border-spacing-x:0; --tw-border-spacing-y:0; --tw-translate-x:0; --tw-translate-y:0; --tw-rotate:0; --tw-skew-x:0; --tw-skew-y:0; --tw-scale-x:1; --tw-scale-y:1; --tw-pan-x: ; --tw-pan-y: ; --tw-pinch-zoom: ; --tw-scroll-snap-strictness:proximity; --tw-gradient-from-position: ; --tw-gradient-via-position: ; --tw-gradient-to-position: ; --tw-ordinal: ; --tw-slashed-zero: ; --tw-numeric-figure: ; --tw-numeric-spacing: ; --tw-numeric-fraction: ; --tw-ring-inset: ; --tw-ring-offset-width:0px; --tw-ring-offset-color:#fff; --tw-ring-color:rgba(69,89,164,0.5); --tw-ring-offset-shadow:0 0 transparent; --tw-ring-shadow:0 0 transparent; --tw-shadow:0 0 transparent; --tw-shadow-colored:0 0 transparent; --tw-blur: ; --tw-brightness: ; --tw-contrast: ; --tw-grayscale: ; --tw-hue-rotate: ; --tw-invert: ; --tw-saturate: ; --tw-sepia: ; --tw-drop-shadow: ; --tw-backdrop-blur: ; --tw-backdrop-brightness: ; --tw-backdrop-contrast: ; --tw-backdrop-grayscale: ; --tw-backdrop-hue-rotate: ; --tw-backdrop-invert: ; --tw-backdrop-opacity: ; --tw-backdrop-saturate: ; --tw-backdrop-sepia: ;&quot; class=&quot;mopen&quot;&gt;(&lt;/span&gt;&lt;span style=&quot;border: 0px solid currentcolor; box-sizing: border-box; --tw-border-spacing-x:0; --tw-border-spacing-y:0; --tw-translate-x:0; --tw-translate-y:0; --tw-rotate:0; --tw-skew-x:0; --tw-skew-y:0; --tw-scale-x:1; --tw-scale-y:1; --tw-pan-x: ; --tw-pan-y: ; --tw-pinch-zoom: ; --tw-scroll-snap-strictness:proximity; --tw-gradient-from-position: ; --tw-gradient-via-position: ; --tw-gradient-to-position: ; --tw-ordinal: ; --tw-slashed-zero: ; --tw-numeric-figure: ; --tw-numeric-spacing: ; --tw-numeric-fraction: ; --tw-ring-inset: ; --tw-ring-offset-width:0px; --tw-ring-offset-color:#fff; --tw-ring-color:rgba(69,89,164,0.5); --tw-ring-offset-shadow:0 0 transparent; --tw-ring-shadow:0 0 transparent; --tw-shadow:0 0 transparent; --tw-shadow-colored:0 0 transparent; --tw-blur: ; --tw-brightness: ; --tw-contrast: ; --tw-grayscale: ; --tw-hue-rotate: ; --tw-invert: ; --tw-saturate: ; --tw-sepia: ; --tw-drop-shadow: ; --tw-backdrop-blur: ; --tw-backdrop-brightness: ; --tw-backdrop-contrast: ; --tw-backdrop-grayscale: ; --tw-backdrop-hue-rotate: ; --tw-backdrop-invert: ; --tw-backdrop-opacity: ; --tw-backdrop-saturate: ; --tw-backdrop-sepia: ; font-family: KaTeX_Math; font-style: italic; margin-right: 0.05017em;&quot; class=&quot;mord mathnormal&quot;&gt;B&lt;/span&gt;&lt;span style=&quot;border: 0px solid currentcolor; box-sizing: border-box; --tw-border-spacing-x:0; --tw-border-spacing-y:0; --tw-translate-x:0; --tw-translate-y:0; --tw-rotate:0; --tw-skew-x:0; --tw-skew-y:0; --tw-scale-x:1; --tw-scale-y:1; --tw-pan-x: ; --tw-pan-y: ; --tw-pinch-zoom: ; --tw-scroll-snap-strictness:proximity; --tw-gradient-from-position: ; --tw-gradient-via-position: ; --tw-gradient-to-position: ; --tw-ordinal: ; --tw-slashed-zero: ; --tw-numeric-figure: ; --tw-numeric-spacing: ; --tw-numeric-fraction: ; --tw-ring-inset: ; --tw-ring-offset-width:0px; --tw-ring-offset-color:#fff; --tw-ring-color:rgba(69,89,164,0.5); --tw-ring-offset-shadow:0 0 transparent; --tw-ring-shadow:0 0 transparent; --tw-shadow:0 0 transparent; --tw-shadow-colored:0 0 transparent; --tw-blur: ; --tw-brightness: ; --tw-contrast: ; --tw-grayscale: ; --tw-hue-rotate: ; --tw-invert: ; --tw-saturate: ; --tw-sepia: ; --tw-drop-shadow: ; --tw-backdrop-blur: ; --tw-backdrop-brightness: ; --tw-backdrop-contrast: ; --tw-backdrop-grayscale: ; --tw-backdrop-hue-rotate: ; --tw-backdrop-invert: ; --tw-backdrop-opacity: ; --tw-backdrop-saturate: ; --tw-backdrop-sepia: ; display: inline-block; margin-right: 0.2222em;&quot; class=&quot;mspace&quot;&gt;&lt;/span&gt;&lt;span style=&quot;border: 0px solid currentcolor; box-sizing: border-box; --tw-border-spacing-x:0; --tw-border-spacing-y:0; --tw-translate-x:0; --tw-translate-y:0; --tw-rotate:0; --tw-skew-x:0; --tw-skew-y:0; --tw-scale-x:1; --tw-scale-y:1; --tw-pan-x: ; --tw-pan-y: ; --tw-pinch-zoom: ; --tw-scroll-snap-strictness:proximity; --tw-gradient-from-position: ; --tw-gradient-via-position: ; --tw-gradient-to-position: ; --tw-ordinal: ; --tw-slashed-zero: ; --tw-numeric-figure: ; --tw-numeric-spacing: ; --tw-numeric-fraction: ; --tw-ring-inset: ; --tw-ring-offset-width:0px; --tw-ring-offset-color:#fff; --tw-ring-color:rgba(69,89,164,0.5); --tw-ring-offset-shadow:0 0 transparent; --tw-ring-shadow:0 0 transparent; --tw-shadow:0 0 transparent; --tw-shadow-colored:0 0 transparent; --tw-blur: ; --tw-brightness: ; --tw-contrast: ; --tw-grayscale: ; --tw-hue-rotate: ; --tw-invert: ; --tw-saturate: ; --tw-sepia: ; --tw-drop-shadow: ; --tw-backdrop-blur: ; --tw-backdrop-brightness: ; --tw-backdrop-contrast: ; --tw-backdrop-grayscale: ; --tw-backdrop-hue-rotate: ; --tw-backdrop-invert: ; --tw-backdrop-opacity: ; --tw-backdrop-saturate: ; --tw-backdrop-sepia: ;&quot; class=&quot;mbin&quot;&gt;â&lt;/span&gt;&lt;span style=&quot;border: 0px solid currentcolor; box-sizing: border-box; --tw-border-spacing-x:0; --tw-border-spacing-y:0; --tw-translate-x:0; --tw-translate-y:0; --tw-rotate:0; --tw-skew-x:0; --tw-skew-y:0; --tw-scale-x:1; --tw-scale-y:1; --tw-pan-x: ; --tw-pan-y: ; --tw-pinch-zoom: ; --tw-scroll-snap-strictness:proximity; --tw-gradient-from-position: ; --tw-gradient-via-position: ; --tw-gradient-to-position: ; --tw-ordinal: ; --tw-slashed-zero: ; --tw-numeric-figure: ; --tw-numeric-spacing: ; --tw-numeric-fraction: ; --tw-ring-inset: ; --tw-ring-offset-width:0px; --tw-ring-offset-color:#fff; --tw-ring-color:rgba(69,89,164,0.5); --tw-ring-offset-shadow:0 0 transparent; --tw-ring-shadow:0 0 transparent; --tw-shadow:0 0 transparent; --tw-shadow-colored:0 0 transparent; --tw-blur: ; --tw-brightness: ; --tw-contrast: ; --tw-grayscale: ; --tw-hue-rotate: ; --tw-invert: ; --tw-saturate: ; --tw-sepia: ; --tw-drop-shadow: ; --tw-backdrop-blur: ; --tw-backdrop-brightness: ; --tw-backdrop-contrast: ; --tw-backdrop-grayscale: ; --tw-backdrop-hue-rotate: ; --tw-backdrop-invert: ; --tw-backdrop-opacity: ; --tw-backdrop-saturate: ; --tw-backdrop-sepia: ; display: inline-block; margin-right: 0.2222em;&quot; class=&quot;mspace&quot;&gt;&lt;/span&gt;&lt;/span&gt;&lt;span style=&quot;border: 0px solid currentcolor; box-sizing: border-box; --tw-border-spacing-x:0; --tw-border-spacing-y:0; --tw-translate-x:0; --tw-translate-y:0; --tw-rotate:0; --tw-skew-x:0; --tw-skew-y:0; --tw-scale-x:1; --tw-scale-y:1; --tw-pan-x: ; --tw-pan-y: ; --tw-pinch-zoom: ; --tw-scroll-snap-strictness:proximity; --tw-gradient-from-position: ; --tw-gradient-via-position: ; --tw-gradient-to-position: ; --tw-ordinal: ; --tw-slashed-zero: ; --tw-numeric-figure: ; --tw-numeric-spacing: ; --tw-numeric-fraction: ; --tw-ring-inset: ; --tw-ring-offset-width:0px; --tw-ring-offset-color:#fff; --tw-ring-color:rgba(69,89,164,0.5); --tw-ring-offset-shadow:0 0 transparent; --tw-ring-shadow:0 0 transparent; --tw-shadow:0 0 transparent; --tw-shadow-colored:0 0 transparent; --tw-blur: ; --tw-brightness: ; --tw-contrast: ; --tw-grayscale: ; --tw-hue-rotate: ; --tw-invert: ; --tw-saturate: ; --tw-sepia: ; --tw-drop-shadow: ; --tw-backdrop-blur: ; --tw-backdrop-brightness: ; --tw-backdrop-contrast: ; --tw-backdrop-grayscale: ; --tw-backdrop-hue-rotate: ; --tw-backdrop-invert: ; --tw-backdrop-opacity: ; --tw-backdrop-saturate: ; --tw-backdrop-sepia: ; position: relative; width: min-content; display: inline-block;&quot; class=&quot;base&quot;&gt;&lt;span style=&quot;border: 0px solid currentcolor; box-sizing: border-box; --tw-border-spacing-x:0; --tw-border-spacing-y:0; --tw-translate-x:0; --tw-translate-y:0; --tw-rotate:0; --tw-skew-x:0; --tw-skew-y:0; --tw-scale-x:1; --tw-scale-y:1; --tw-pan-x: ; --tw-pan-y: ; --tw-pinch-zoom: ; --tw-scroll-snap-strictness:proximity; --tw-gradient-from-position: ; --tw-gradient-via-position: ; --tw-gradient-to-position: ; --tw-ordinal: ; --tw-slashed-zero: ; --tw-numeric-figure: ; --tw-numeric-spacing: ; --tw-numeric-fraction: ; --tw-ring-inset: ; --tw-ring-offset-width:0px; --tw-ring-offset-color:#fff; --tw-ring-color:rgba(69,89,164,0.5); --tw-ring-offset-shadow:0 0 transparent; --tw-ring-shadow:0 0 transparent; --tw-shadow:0 0 transparent; --tw-shadow-colored:0 0 transparent; --tw-blur: ; --tw-brightness: ; --tw-contrast: ; --tw-grayscale: ; --tw-hue-rotate: ; --tw-invert: ; --tw-saturate: ; --tw-sepia: ; --tw-drop-shadow: ; --tw-backdrop-blur: ; --tw-backdrop-brightness: ; --tw-backdrop-contrast: ; --tw-backdrop-grayscale: ; --tw-backdrop-hue-rotate: ; --tw-backdrop-invert: ; --tw-backdrop-opacity: ; --tw-backdrop-saturate: ; --tw-backdrop-sepia: ; display: inline-block; height: 1em; vertical-align: -0.25em;&quot; class=&quot;strut&quot;&gt;&lt;/span&gt;&lt;span style=&quot;border: 0px solid currentcolor; box-sizing: border-box; --tw-border-spacing-x:0; --tw-border-spacing-y:0; --tw-translate-x:0; --tw-translate-y:0; --tw-rotate:0; --tw-skew-x:0; --tw-skew-y:0; --tw-scale-x:1; --tw-scale-y:1; --tw-pan-x: ; --tw-pan-y: ; --tw-pinch-zoom: ; --tw-scroll-snap-strictness:proximity; --tw-gradient-from-position: ; --tw-gradient-via-position: ; --tw-gradient-to-position: ; --tw-ordinal: ; --tw-slashed-zero: ; --tw-numeric-figure: ; --tw-numeric-spacing: ; --tw-numeric-fraction: ; --tw-ring-inset: ; --tw-ring-offset-width:0px; --tw-ring-offset-color:#fff; --tw-ring-color:rgba(69,89,164,0.5); --tw-ring-offset-shadow:0 0 transparent; --tw-ring-shadow:0 0 transparent; --tw-shadow:0 0 transparent; --tw-shadow-colored:0 0 transparent; --tw-blur: ; --tw-brightness: ; --tw-contrast: ; --tw-grayscale: ; --tw-hue-rotate: ; --tw-invert: ; --tw-saturate: ; --tw-sepia: ; --tw-drop-shadow: ; --tw-backdrop-blur: ; --tw-backdrop-brightness: ; --tw-backdrop-contrast: ; --tw-backdrop-grayscale: ; --tw-backdrop-hue-rotate: ; --tw-backdrop-invert: ; --tw-backdrop-opacity: ; --tw-backdrop-saturate: ; --tw-backdrop-sepia: ; font-family: KaTeX_Math; font-style: italic;&quot; class=&quot;mord mathnormal&quot;&gt;A&lt;/span&gt;&lt;span style=&quot;border: 0px solid currentcolor; box-sizing: border-box; --tw-border-spacing-x:0; --tw-border-spacing-y:0; --tw-translate-x:0; --tw-translate-y:0; --tw-rotate:0; --tw-skew-x:0; --tw-skew-y:0; --tw-scale-x:1; --tw-scale-y:1; --tw-pan-x: ; --tw-pan-y: ; --tw-pinch-zoom: ; --tw-scroll-snap-strictness:proximity; --tw-gradient-from-position: ; --tw-gradient-via-position: ; --tw-gradient-to-position: ; --tw-ordinal: ; --tw-slashed-zero: ; --tw-numeric-figure: ; --tw-numeric-spacing: ; --tw-numeric-fraction: ; --tw-ring-inset: ; --tw-ring-offset-width:0px; --tw-ring-offset-color:#fff; --tw-ring-color:rgba(69,89,164,0.5); --tw-ring-offset-shadow:0 0 transparent; --tw-ring-shadow:0 0 transparent; --tw-shadow:0 0 transparent; --tw-shadow-colored:0 0 transparent; --tw-blur: ; --tw-brightness: ; --tw-contrast: ; --tw-grayscale: ; --tw-hue-rotate: ; --tw-invert: ; --tw-saturate: ; --tw-sepia: ; --tw-drop-shadow: ; --tw-backdrop-blur: ; --tw-backdrop-brightness: ; --tw-backdrop-contrast: ; --tw-backdrop-grayscale: ; --tw-backdrop-hue-rotate: ; --tw-backdrop-invert: ; --tw-backdrop-opacity: ; --tw-backdrop-saturate: ; --tw-backdrop-sepia: ;&quot; class=&quot;mclose&quot;&gt;)= B&lt;/span&gt;&lt;/span&gt;&lt;/div&gt;&lt;div style=&quot;text-align: left;&quot;&gt;&lt;span style=&quot;border: 0px solid currentcolor; box-sizing: border-box; --tw-border-spacing-x:0; --tw-border-spacing-y:0; --tw-translate-x:0; --tw-translate-y:0; --tw-rotate:0; --tw-skew-x:0; --tw-skew-y:0; --tw-scale-x:1; --tw-scale-y:1; --tw-pan-x: ; --tw-pan-y: ; --tw-pinch-zoom: ; --tw-scroll-snap-strictness:proximity; --tw-gradient-from-position: ; --tw-gradient-via-position: ; --tw-gradient-to-position: ; --tw-ordinal: ; --tw-slashed-zero: ; --tw-numeric-figure: ; --tw-numeric-spacing: ; --tw-numeric-fraction: ; --tw-ring-inset: ; --tw-ring-offset-width:0px; --tw-ring-offset-color:#fff; --tw-ring-color:rgba(69,89,164,0.5); --tw-ring-offset-shadow:0 0 transparent; --tw-ring-shadow:0 0 transparent; --tw-shadow:0 0 transparent; --tw-shadow-colored:0 0 transparent; --tw-blur: ; --tw-brightness: ; --tw-contrast: ; --tw-grayscale: ; --tw-hue-rotate: ; --tw-invert: ; --tw-saturate: ; --tw-sepia: ; --tw-drop-shadow: ; --tw-backdrop-blur: ; --tw-backdrop-brightness: ; --tw-backdrop-contrast: ; --tw-backdrop-grayscale: ; --tw-backdrop-hue-rotate: ; --tw-backdrop-invert: ; --tw-backdrop-opacity: ; --tw-backdrop-saturate: ; --tw-backdrop-sepia: ; position: relative; width: min-content; display: inline-block;&quot; class=&quot;base&quot;&gt;&lt;span style=&quot;border: 0px solid currentcolor; box-sizing: border-box; --tw-border-spacing-x:0; --tw-border-spacing-y:0; --tw-translate-x:0; --tw-translate-y:0; --tw-rotate:0; --tw-skew-x:0; --tw-skew-y:0; --tw-scale-x:1; --tw-scale-y:1; --tw-pan-x: ; --tw-pan-y: ; --tw-pinch-zoom: ; --tw-scroll-snap-strictness:proximity; --tw-gradient-from-position: ; --tw-gradient-via-position: ; --tw-gradient-to-position: ; --tw-ordinal: ; --tw-slashed-zero: ; --tw-numeric-figure: ; --tw-numeric-spacing: ; --tw-numeric-fraction: ; --tw-ring-inset: ; --tw-ring-offset-width:0px; --tw-ring-offset-color:#fff; --tw-ring-color:rgba(69,89,164,0.5); --tw-ring-offset-shadow:0 0 transparent; --tw-ring-shadow:0 0 transparent; --tw-shadow:0 0 transparent; --tw-shadow-colored:0 0 transparent; --tw-blur: ; --tw-brightness: ; --tw-contrast: ; --tw-grayscale: ; --tw-hue-rotate: ; --tw-invert: ; --tw-saturate: ; --tw-sepia: ; --tw-drop-shadow: ; --tw-backdrop-blur: ; --tw-backdrop-brightness: ; --tw-backdrop-contrast: ; --tw-backdrop-grayscale: ; --tw-backdrop-hue-rotate: ; --tw-backdrop-invert: ; --tw-backdrop-opacity: ; --tw-backdrop-saturate: ; --tw-backdrop-sepia: ;&quot; class=&quot;mclose&quot;&gt;A=&amp;nbsp;rec_propagation_indicator&lt;/span&gt;&lt;/span&gt;&lt;/div&gt;&lt;div style=&quot;text-align: left;&quot;&gt;&lt;span style=&quot;border: 0px solid currentcolor; box-sizing: border-box; --tw-border-spacing-x:0; --tw-border-spacing-y:0; --tw-translate-x:0; --tw-translate-y:0; --tw-rotate:0; --tw-skew-x:0; --tw-skew-y:0; --tw-scale-x:1; --tw-scale-y:1; --tw-pan-x: ; --tw-pan-y: ; --tw-pinch-zoom: ; --tw-scroll-snap-strictness:proximity; --tw-gradient-from-position: ; --tw-gradient-via-position: ; --tw-gradient-to-position: ; --tw-ordinal: ; --tw-slashed-zero: ; --tw-numeric-figure: ; --tw-numeric-spacing: ; --tw-numeric-fraction: ; --tw-ring-inset: ; --tw-ring-offset-width:0px; --tw-ring-offset-color:#fff; --tw-ring-color:rgba(69,89,164,0.5); --tw-ring-offset-shadow:0 0 transparent; --tw-ring-shadow:0 0 transparent; --tw-shadow:0 0 transparent; --tw-shadow-colored:0 0 transparent; --tw-blur: ; --tw-brightness: ; --tw-contrast: ; --tw-grayscale: ; --tw-hue-rotate: ; --tw-invert: ; --tw-saturate: ; --tw-sepia: ; --tw-drop-shadow: ; --tw-backdrop-blur: ; --tw-backdrop-brightness: ; --tw-backdrop-contrast: ; --tw-backdrop-grayscale: ; --tw-backdrop-hue-rotate: ; --tw-backdrop-invert: ; --tw-backdrop-opacity: ; --tw-backdrop-saturate: ; --tw-backdrop-sepia: ; position: relative; width: min-content; display: inline-block;&quot; class=&quot;base&quot;&gt;&lt;span style=&quot;border: 0px solid currentcolor; box-sizing: border-box; --tw-border-spacing-x:0; --tw-border-spacing-y:0; --tw-translate-x:0; --tw-translate-y:0; --tw-rotate:0; --tw-skew-x:0; --tw-skew-y:0; --tw-scale-x:1; --tw-scale-y:1; --tw-pan-x: ; --tw-pan-y: ; --tw-pinch-zoom: ; --tw-scroll-snap-strictness:proximity; --tw-gradient-from-position: ; --tw-gradient-via-position: ; --tw-gradient-to-position: ; --tw-ordinal: ; --tw-slashed-zero: ; --tw-numeric-figure: ; --tw-numeric-spacing: ; --tw-numeric-fraction: ; --tw-ring-inset: ; --tw-ring-offset-width:0px; --tw-ring-offset-color:#fff; --tw-ring-color:rgba(69,89,164,0.5); --tw-ring-offset-shadow:0 0 transparent; --tw-ring-shadow:0 0 transparent; --tw-shadow:0 0 transparent; --tw-shadow-colored:0 0 transparent; --tw-blur: ; --tw-brightness: ; --tw-contrast: ; --tw-grayscale: ; --tw-hue-rotate: ; --tw-invert: ; --tw-saturate: ; --tw-sepia: ; --tw-drop-shadow: ; --tw-backdrop-blur: ; --tw-backdrop-brightness: ; --tw-backdrop-contrast: ; --tw-backdrop-grayscale: ; --tw-backdrop-hue-rotate: ; --tw-backdrop-invert: ; --tw-backdrop-opacity: ; --tw-backdrop-saturate: ; --tw-backdrop-sepia: ;&quot; class=&quot;mclose&quot;&gt;B= All_ neighbors_id&lt;/span&gt;&lt;/span&gt;&lt;/div&gt;&lt;div style=&quot;text-align: left;&quot;&gt;&lt;span style=&quot;border: 0px solid currentcolor; box-sizing: border-box; --tw-border-spacing-x:0; --tw-border-spacing-y:0; --tw-translate-x:0; --tw-translate-y:0; --tw-rotate:0; --tw-skew-x:0; --tw-skew-y:0; --tw-scale-x:1; --tw-scale-y:1; --tw-pan-x: ; --tw-pan-y: ; --tw-pinch-zoom: ; --tw-scroll-snap-strictness:proximity; --tw-gradient-from-position: ; --tw-gradient-via-position: ; --tw-gradient-to-position: ; --tw-ordinal: ; --tw-slashed-zero: ; --tw-numeric-figure: ; --tw-numeric-spacing: ; --tw-numeric-fraction: ; --tw-ring-inset: ; --tw-ring-offset-width:0px; --tw-ring-offset-color:#fff; --tw-ring-color:rgba(69,89,164,0.5); --tw-ring-offset-shadow:0 0 transparent; --tw-ring-shadow:0 0 transparent; --tw-shadow:0 0 transparent; --tw-shadow-colored:0 0 transparent; --tw-blur: ; --tw-brightness: ; --tw-contrast: ; --tw-grayscale: ; --tw-hue-rotate: ; --tw-invert: ; --tw-saturate: ; --tw-sepia: ; --tw-drop-shadow: ; --tw-backdrop-blur: ; --tw-backdrop-brightness: ; --tw-backdrop-contrast: ; --tw-backdrop-grayscale: ; --tw-backdrop-hue-rotate: ; --tw-backdrop-invert: ; --tw-backdrop-opacity: ; --tw-backdrop-saturate: ; --tw-backdrop-sepia: ; position: relative; width: min-content; display: inline-block;&quot; class=&quot;base&quot;&gt;&lt;span style=&quot;border: 0px solid currentcolor; box-sizing: border-box; --tw-border-spacing-x:0; --tw-border-spacing-y:0; --tw-translate-x:0; --tw-translate-y:0; --tw-rotate:0; --tw-skew-x:0; --tw-skew-y:0; --tw-scale-x:1; --tw-scale-y:1; --tw-pan-x: ; --tw-pan-y: ; --tw-pinch-zoom: ; --tw-scroll-snap-strictness:proximity; --tw-gradient-from-position: ; --tw-gradient-via-position: ; --tw-gradient-to-position: ; --tw-ordinal: ; --tw-slashed-zero: ; --tw-numeric-figure: ; --tw-numeric-spacing: ; --tw-numeric-fraction: ; --tw-ring-inset: ; --tw-ring-offset-width:0px; --tw-ring-offset-color:#fff; --tw-ring-color:rgba(69,89,164,0.5); --tw-ring-offset-shadow:0 0 transparent; --tw-ring-shadow:0 0 transparent; --tw-shadow:0 0 transparent; --tw-shadow-colored:0 0 transparent; --tw-blur: ; --tw-brightness: ; --tw-contrast: ; --tw-grayscale: ; --tw-hue-rotate: ; --tw-invert: ; --tw-saturate: ; --tw-sepia: ; --tw-drop-shadow: ; --tw-backdrop-blur: ; --tw-backdrop-brightness: ; --tw-backdrop-contrast: ; --tw-backdrop-grayscale: ; --tw-backdrop-hue-rotate: ; --tw-backdrop-invert: ; --tw-backdrop-opacity: ; --tw-backdrop-saturate: ; --tw-backdrop-sepia: ;&quot; class=&quot;mclose&quot;&gt;&lt;br&gt;&lt;/span&gt;&lt;/span&gt;&lt;/div&gt;&lt;div style=&quot;text-align: left;&quot;&gt;&lt;span style=&quot;border: 0px solid currentcolor; box-sizing: border-box; --tw-border-spacing-x:0; --tw-border-spacing-y:0; --tw-translate-x:0; --tw-translate-y:0; --tw-rotate:0; --tw-skew-x:0; --tw-skew-y:0; --tw-scale-x:1; --tw-scale-y:1; --tw-pan-x: ; --tw-pan-y: ; --tw-pinch-zoom: ; --tw-scroll-snap-strictness:proximity; --tw-gradient-from-position: ; --tw-gradient-via-position: ; --tw-gradient-to-position: ; --tw-ordinal: ; --tw-slashed-zero: ; --tw-numeric-figure: ; --tw-numeric-spacing: ; --tw-numeric-fraction: ; --tw-ring-inset: ; --tw-ring-offset-width:0px; --tw-ring-offset-color:#fff; --tw-ring-color:rgba(69,89,164,0.5); --tw-ring-offset-shadow:0 0 transparent; --tw-ring-shadow:0 0 transparent; --tw-shadow:0 0 transparent; --tw-shadow-colored:0 0 transparent; --tw-blur: ; --tw-brightness: ; --tw-contrast: ; --tw-grayscale: ; --tw-hue-rotate: ; --tw-invert: ; --tw-saturate: ; --tw-sepia: ; --tw-drop-shadow: ; --tw-backdrop-blur: ; --tw-backdrop-brightness: ; --tw-backdrop-contrast: ; --tw-backdrop-grayscale: ; --tw-backdrop-hue-rotate: ; --tw-backdrop-invert: ; --tw-backdrop-opacity: ; --tw-backdrop-saturate: ; --tw-backdrop-sepia: ; position: relative; width: min-content; display: inline-block;&quot; class=&quot;base&quot;&gt;&lt;span style=&quot;border: 0px solid currentcolor; box-sizing: border-box; --tw-border-spacing-x:0; --tw-border-spacing-y:0; --tw-translate-x:0; --tw-translate-y:0; --tw-rotate:0; --tw-skew-x:0; --tw-skew-y:0; --tw-scale-x:1; --tw-scale-y:1; --tw-pan-x: ; --tw-pan-y: ; --tw-pinch-zoom: ; --tw-scroll-snap-strictness:proximity; --tw-gradient-from-position: ; --tw-gradient-via-position: ; --tw-gradient-to-position: ; --tw-ordinal: ; --tw-slashed-zero: ; --tw-numeric-figure: ; --tw-numeric-spacing: ; --tw-numeric-fraction: ; --tw-ring-inset: ; --tw-ring-offset-width:0px; --tw-ring-offset-color:#fff; --tw-ring-color:rgba(69,89,164,0.5); --tw-ring-offset-shadow:0 0 transparent; --tw-ring-shadow:0 0 transparent; --tw-shadow:0 0 transparent; --tw-shadow-colored:0 0 transparent; --tw-blur: ; --tw-brightness: ; --tw-contrast: ; --tw-grayscale: ; --tw-hue-rotate: ; --tw-invert: ; --tw-saturate: ; --tw-sepia: ; --tw-drop-shadow: ; --tw-backdrop-blur: ; --tw-backdrop-brightness: ; --tw-backdrop-contrast: ; --tw-backdrop-grayscale: ; --tw-backdrop-hue-rotate: ; --tw-backdrop-invert: ; --tw-backdrop-opacity: ; --tw-backdrop-saturate: ; --tw-backdrop-sepia: ;&quot; class=&quot;mclose&quot;&gt;&lt;b&gt;Target&lt;/b&gt;=&amp;nbsp; BâA.&lt;/span&gt;&lt;/span&gt;&lt;/div&gt;&lt;/span&gt;&lt;/span&gt;&lt;/span&gt;&lt;/font&gt;" style="text;html=1;align=center;verticalAlign=middle;resizable=0;points=[];autosize=1;strokeColor=none;fillColor=none;" parent="IBZ0rPLe4Yo4xLdav0hi-139" vertex="1">
          <mxGeometry x="110" width="250" height="170" as="geometry" />
        </mxCell>
        <mxCell id="IBZ0rPLe4Yo4xLdav0hi-35" value="" style="endArrow=classic;html=1;rounded=0;" parent="IBZ0rPLe4Yo4xLdav0hi-139" edge="1">
          <mxGeometry width="50" height="50" relative="1" as="geometry">
            <mxPoint x="210" y="480" as="sourcePoint" />
            <mxPoint x="260" y="430" as="targetPoint" />
          </mxGeometry>
        </mxCell>
        <mxCell id="IBZ0rPLe4Yo4xLdav0hi-37" value="" style="endArrow=classic;html=1;rounded=0;" parent="IBZ0rPLe4Yo4xLdav0hi-139" edge="1">
          <mxGeometry width="50" height="50" relative="1" as="geometry">
            <mxPoint x="240" y="530" as="sourcePoint" />
            <mxPoint x="320" y="530" as="targetPoint" />
          </mxGeometry>
        </mxCell>
        <mxCell id="IBZ0rPLe4Yo4xLdav0hi-39" value="&lt;font style=&quot;font-size: 9px;&quot;&gt;REC&lt;/font&gt;" style="text;html=1;align=center;verticalAlign=middle;resizable=0;points=[];autosize=1;strokeColor=none;fillColor=none;" parent="IBZ0rPLe4Yo4xLdav0hi-139" vertex="1">
          <mxGeometry x="240" y="398" width="40" height="30" as="geometry" />
        </mxCell>
        <mxCell id="IBZ0rPLe4Yo4xLdav0hi-41" value="&lt;font style=&quot;font-size: 9px;&quot;&gt;REC&lt;/font&gt;" style="text;html=1;align=center;verticalAlign=middle;resizable=0;points=[];autosize=1;strokeColor=none;fillColor=none;" parent="IBZ0rPLe4Yo4xLdav0hi-139" vertex="1">
          <mxGeometry x="310" y="510" width="40" height="30" as="geometry" />
        </mxCell>
        <mxCell id="IBZ0rPLe4Yo4xLdav0hi-43" value="" style="endArrow=classic;html=1;rounded=0;" parent="IBZ0rPLe4Yo4xLdav0hi-139" edge="1">
          <mxGeometry width="50" height="50" relative="1" as="geometry">
            <mxPoint x="330" y="380" as="sourcePoint" />
            <mxPoint x="430" y="380" as="targetPoint" />
          </mxGeometry>
        </mxCell>
        <mxCell id="IBZ0rPLe4Yo4xLdav0hi-44" value="&lt;font style=&quot;font-size: 9px;&quot;&gt;REC&lt;/font&gt;" style="text;html=1;align=center;verticalAlign=middle;resizable=0;points=[];autosize=1;strokeColor=none;fillColor=none;" parent="IBZ0rPLe4Yo4xLdav0hi-139" vertex="1">
          <mxGeometry x="405" y="355" width="40" height="30" as="geometry" />
        </mxCell>
        <mxCell id="IBZ0rPLe4Yo4xLdav0hi-45" value="&lt;font style=&quot;font-size: 8px;&quot;&gt;Ignored&amp;nbsp;not tareget&lt;/font&gt;" style="text;html=1;align=center;verticalAlign=middle;resizable=0;points=[];autosize=1;strokeColor=none;fillColor=none;" parent="IBZ0rPLe4Yo4xLdav0hi-139" vertex="1">
          <mxGeometry x="320" y="410" width="90" height="30" as="geometry" />
        </mxCell>
        <mxCell id="IBZ0rPLe4Yo4xLdav0hi-46" value="" style="endArrow=classic;html=1;rounded=0;fillColor=#D5E8D4;strokeColor=#CCCCCC;" parent="IBZ0rPLe4Yo4xLdav0hi-139" source="IBZ0rPLe4Yo4xLdav0hi-6" edge="1">
          <mxGeometry width="50" height="50" relative="1" as="geometry">
            <mxPoint x="370" y="460" as="sourcePoint" />
            <mxPoint x="360" y="480" as="targetPoint" />
          </mxGeometry>
        </mxCell>
        <mxCell id="IBZ0rPLe4Yo4xLdav0hi-50" value="&lt;font style=&quot;font-size: 9px;&quot;&gt;rec_propagation_indicator= [ 1,2,14]&lt;br style=&quot;border-color: var(--border-color);&quot;&gt;neighbours= [1,2,14,3]&lt;br style=&quot;border-color: var(--border-color);&quot;&gt;new_propagation_indicator =[ 1,2,14,3]&lt;br style=&quot;border-color: var(--border-color);&quot;&gt;target=[3]&lt;/font&gt;" style="shape=process;whiteSpace=wrap;html=1;backgroundOutline=1;size=0.05263157894736842;" parent="IBZ0rPLe4Yo4xLdav0hi-139" vertex="1">
          <mxGeometry x="60" y="298" width="190" height="70" as="geometry" />
        </mxCell>
        <mxCell id="IBZ0rPLe4Yo4xLdav0hi-51" value="&lt;font style=&quot;font-size: 9px;&quot;&gt;rec_propagation_indicator=[ 1,2,14,3]&lt;br style=&quot;border-color: var(--border-color);&quot;&gt;neighbours= [2,3,14,4,6]&lt;br style=&quot;border-color: var(--border-color);&quot;&gt;new_propagation_indicator =[ 2,3,14,4,6]&lt;br style=&quot;border-color: var(--border-color);&quot;&gt;target=[4,6,13]&lt;/font&gt;" style="shape=process;whiteSpace=wrap;html=1;backgroundOutline=1;size=0.05263157894736842;" parent="IBZ0rPLe4Yo4xLdav0hi-139" vertex="1">
          <mxGeometry x="310" y="259" width="185" height="70" as="geometry" />
        </mxCell>
        <mxCell id="IBZ0rPLe4Yo4xLdav0hi-52" value="" style="endArrow=classic;html=1;rounded=0;" parent="IBZ0rPLe4Yo4xLdav0hi-139" edge="1">
          <mxGeometry width="50" height="50" relative="1" as="geometry">
            <mxPoint x="520" y="369.81" as="sourcePoint" />
            <mxPoint x="590" y="370" as="targetPoint" />
          </mxGeometry>
        </mxCell>
        <mxCell id="IBZ0rPLe4Yo4xLdav0hi-53" value="" style="endArrow=classic;html=1;rounded=0;exitX=0.792;exitY=0.956;exitDx=0;exitDy=0;exitPerimeter=0;" parent="IBZ0rPLe4Yo4xLdav0hi-139" source="IBZ0rPLe4Yo4xLdav0hi-7" edge="1">
          <mxGeometry width="50" height="50" relative="1" as="geometry">
            <mxPoint x="490" y="428" as="sourcePoint" />
            <mxPoint x="550" y="470" as="targetPoint" />
          </mxGeometry>
        </mxCell>
        <mxCell id="IBZ0rPLe4Yo4xLdav0hi-54" value="" style="endArrow=classic;html=1;rounded=0;" parent="IBZ0rPLe4Yo4xLdav0hi-139" edge="1">
          <mxGeometry width="50" height="50" relative="1" as="geometry">
            <mxPoint x="510" y="340" as="sourcePoint" />
            <mxPoint x="550" y="270" as="targetPoint" />
          </mxGeometry>
        </mxCell>
        <mxCell id="IBZ0rPLe4Yo4xLdav0hi-55" value="&lt;font style=&quot;font-size: 8px;&quot;&gt;Droped ( free)&amp;nbsp;&lt;/font&gt;" style="text;html=1;align=center;verticalAlign=middle;resizable=0;points=[];autosize=1;strokeColor=none;fillColor=none;" parent="IBZ0rPLe4Yo4xLdav0hi-139" vertex="1">
          <mxGeometry x="540" y="455" width="80" height="30" as="geometry" />
        </mxCell>
        <mxCell id="IBZ0rPLe4Yo4xLdav0hi-57" value="&lt;font style=&quot;font-size: 8px;&quot;&gt;Droped ( free)&amp;nbsp;&lt;/font&gt;" style="text;html=1;align=center;verticalAlign=middle;resizable=0;points=[];autosize=1;strokeColor=none;fillColor=none;" parent="IBZ0rPLe4Yo4xLdav0hi-139" vertex="1">
          <mxGeometry x="550" y="368" width="80" height="30" as="geometry" />
        </mxCell>
        <mxCell id="IBZ0rPLe4Yo4xLdav0hi-58" value="&lt;font style=&quot;font-size: 9px;&quot;&gt;rec_propagation_indicator=[ 1,2,14]&lt;br style=&quot;border-color: var(--border-color);&quot;&gt;neighbours= [1,2,14,3,13,11]&lt;br style=&quot;border-color: var(--border-color);&quot;&gt;new_propagation_indicator =[ 1,2,14,3,13,11]&lt;br style=&quot;border-color: var(--border-color);&quot;&gt;target=[3,11,13]&lt;/font&gt;" style="shape=process;whiteSpace=wrap;html=1;backgroundOutline=1;size=0.05263157894736842;" parent="IBZ0rPLe4Yo4xLdav0hi-139" vertex="1">
          <mxGeometry x="255" y="560" width="175" height="70" as="geometry" />
        </mxCell>
        <mxCell id="IBZ0rPLe4Yo4xLdav0hi-59" value="" style="endArrow=classic;html=1;rounded=0;" parent="IBZ0rPLe4Yo4xLdav0hi-139" edge="1">
          <mxGeometry width="50" height="50" relative="1" as="geometry">
            <mxPoint x="430" y="519.73" as="sourcePoint" />
            <mxPoint x="510" y="519.73" as="targetPoint" />
          </mxGeometry>
        </mxCell>
        <mxCell id="IBZ0rPLe4Yo4xLdav0hi-60" value="&lt;font style=&quot;font-size: 8px;&quot;&gt;Droped ( free)&amp;nbsp;&lt;/font&gt;" style="text;html=1;align=center;verticalAlign=middle;resizable=0;points=[];autosize=1;strokeColor=none;fillColor=none;" parent="IBZ0rPLe4Yo4xLdav0hi-139" vertex="1">
          <mxGeometry x="460" y="490" width="80" height="30" as="geometry" />
        </mxCell>
        <mxCell id="IBZ0rPLe4Yo4xLdav0hi-62" value="" style="endArrow=classic;html=1;rounded=0;exitX=0.983;exitY=0.667;exitDx=0;exitDy=0;exitPerimeter=0;" parent="IBZ0rPLe4Yo4xLdav0hi-139" source="IBZ0rPLe4Yo4xLdav0hi-2" edge="1">
          <mxGeometry width="50" height="50" relative="1" as="geometry">
            <mxPoint x="440" y="550" as="sourcePoint" />
            <mxPoint x="480" y="610" as="targetPoint" />
          </mxGeometry>
        </mxCell>
        <mxCell id="IBZ0rPLe4Yo4xLdav0hi-63" value="&lt;font style=&quot;font-size: 9px;&quot;&gt;REC&lt;/font&gt;" style="text;html=1;align=center;verticalAlign=middle;resizable=0;points=[];autosize=1;strokeColor=none;fillColor=none;" parent="IBZ0rPLe4Yo4xLdav0hi-139" vertex="1">
          <mxGeometry x="450" y="600" width="40" height="30" as="geometry" />
        </mxCell>
        <mxCell id="IBZ0rPLe4Yo4xLdav0hi-64" value="" style="endArrow=classic;html=1;rounded=0;exitX=0.82;exitY=0.953;exitDx=0;exitDy=0;exitPerimeter=0;fillColor=#D5E8D4;strokeColor=#CCCCCC;" parent="IBZ0rPLe4Yo4xLdav0hi-139" edge="1">
          <mxGeometry width="50" height="50" relative="1" as="geometry">
            <mxPoint x="310" y="405" as="sourcePoint" />
            <mxPoint x="274" y="455" as="targetPoint" />
          </mxGeometry>
        </mxCell>
        <mxCell id="IBZ0rPLe4Yo4xLdav0hi-65" value="" style="endArrow=classic;html=1;rounded=0;fillColor=#D5E8D4;strokeColor=#CCCCCC;" parent="IBZ0rPLe4Yo4xLdav0hi-139" source="IBZ0rPLe4Yo4xLdav0hi-2" edge="1">
          <mxGeometry width="50" height="50" relative="1" as="geometry">
            <mxPoint x="320" y="415" as="sourcePoint" />
            <mxPoint x="280" y="520" as="targetPoint" />
          </mxGeometry>
        </mxCell>
        <mxCell id="IBZ0rPLe4Yo4xLdav0hi-66" value="" style="endArrow=classic;html=1;rounded=0;fillColor=#D5E8D4;strokeColor=#CCCCCC;" parent="IBZ0rPLe4Yo4xLdav0hi-139" edge="1">
          <mxGeometry width="50" height="50" relative="1" as="geometry">
            <mxPoint x="350" y="520" as="sourcePoint" />
            <mxPoint x="310" y="460" as="targetPoint" />
          </mxGeometry>
        </mxCell>
        <mxCell id="IBZ0rPLe4Yo4xLdav0hi-67" value="" style="endArrow=classic;html=1;rounded=0;exitX=1;exitY=0;exitDx=0;exitDy=0;strokeColor=#666666;" parent="IBZ0rPLe4Yo4xLdav0hi-139" source="IBZ0rPLe4Yo4xLdav0hi-2" edge="1">
          <mxGeometry width="50" height="50" relative="1" as="geometry">
            <mxPoint x="430" y="440" as="sourcePoint" />
            <mxPoint x="440" y="460" as="targetPoint" />
          </mxGeometry>
        </mxCell>
        <mxCell id="IBZ0rPLe4Yo4xLdav0hi-68" value="" style="endArrow=classic;html=1;rounded=0;fillColor=#D5E8D4;strokeColor=#CCCCCC;exitX=0.828;exitY=-0.009;exitDx=0;exitDy=0;exitPerimeter=0;" parent="IBZ0rPLe4Yo4xLdav0hi-139" source="IBZ0rPLe4Yo4xLdav0hi-44" edge="1">
          <mxGeometry width="50" height="50" relative="1" as="geometry">
            <mxPoint x="450" y="354.33000000000004" as="sourcePoint" />
            <mxPoint x="380" y="354.33000000000004" as="targetPoint" />
          </mxGeometry>
        </mxCell>
        <mxCell id="IBZ0rPLe4Yo4xLdav0hi-70" value="&lt;font style=&quot;font-size: 9px;&quot;&gt;rec_propagation_indicator=[ 2,3,14,4,6]&lt;br style=&quot;border-color: var(--border-color);&quot;&gt;neighbours= [3,4,6,5]&lt;br style=&quot;border-color: var(--border-color);&quot;&gt;new_propagation_indicator =[3,4,6,5]&lt;br style=&quot;border-color: var(--border-color);&quot;&gt;target=[5]&lt;/font&gt;" style="shape=process;whiteSpace=wrap;html=1;backgroundOutline=1;size=0.05263157894736842;" parent="IBZ0rPLe4Yo4xLdav0hi-139" vertex="1">
          <mxGeometry x="375" y="110" width="180" height="70" as="geometry" />
        </mxCell>
        <mxCell id="IBZ0rPLe4Yo4xLdav0hi-71" value="" style="endArrow=classic;html=1;rounded=0;fillColor=#D5E8D4;strokeColor=#CCCCCC;exitX=0.828;exitY=-0.009;exitDx=0;exitDy=0;exitPerimeter=0;" parent="IBZ0rPLe4Yo4xLdav0hi-139" edge="1">
          <mxGeometry width="50" height="50" relative="1" as="geometry">
            <mxPoint x="538" y="260" as="sourcePoint" />
            <mxPoint x="510" y="304.33" as="targetPoint" />
          </mxGeometry>
        </mxCell>
        <mxCell id="IBZ0rPLe4Yo4xLdav0hi-72" value="" style="endArrow=classic;html=1;rounded=0;" parent="IBZ0rPLe4Yo4xLdav0hi-139" edge="1">
          <mxGeometry width="50" height="50" relative="1" as="geometry">
            <mxPoint x="590" y="220" as="sourcePoint" />
            <mxPoint x="690" y="220" as="targetPoint" />
          </mxGeometry>
        </mxCell>
        <mxCell id="IBZ0rPLe4Yo4xLdav0hi-75" value="&lt;font style=&quot;font-size: 9px;&quot;&gt;REC&lt;/font&gt;" style="text;html=1;align=center;verticalAlign=middle;resizable=0;points=[];autosize=1;strokeColor=none;fillColor=none;" parent="IBZ0rPLe4Yo4xLdav0hi-139" vertex="1">
          <mxGeometry x="670" y="190" width="40" height="30" as="geometry" />
        </mxCell>
        <mxCell id="IBZ0rPLe4Yo4xLdav0hi-76" value="&lt;font style=&quot;font-size: 9px;&quot;&gt;rec_propagation_indicator=[3,4,6,5]&lt;br style=&quot;border-color: var(--border-color);&quot;&gt;neighbours= [5,4,6,7]&lt;br style=&quot;border-color: var(--border-color);&quot;&gt;new_propagation_indicator =[4,5,6,7]&lt;br style=&quot;border-color: var(--border-color);&quot;&gt;target=[7]&lt;/font&gt;" style="shape=process;whiteSpace=wrap;html=1;backgroundOutline=1;size=0.05263157894736842;" parent="IBZ0rPLe4Yo4xLdav0hi-139" vertex="1">
          <mxGeometry x="653" y="110" width="200" height="70" as="geometry" />
        </mxCell>
        <mxCell id="IBZ0rPLe4Yo4xLdav0hi-77" value="" style="endArrow=classic;html=1;rounded=0;fillColor=#D5E8D4;strokeColor=#CCCCCC;exitX=0.828;exitY=-0.009;exitDx=0;exitDy=0;exitPerimeter=0;" parent="IBZ0rPLe4Yo4xLdav0hi-139" edge="1">
          <mxGeometry width="50" height="50" relative="1" as="geometry">
            <mxPoint x="710" y="250" as="sourcePoint" />
            <mxPoint x="682" y="294.33" as="targetPoint" />
          </mxGeometry>
        </mxCell>
        <mxCell id="IBZ0rPLe4Yo4xLdav0hi-78" value="" style="endArrow=classic;html=1;rounded=0;fillColor=#D5E8D4;strokeColor=#CCCCCC;exitX=0.828;exitY=-0.009;exitDx=0;exitDy=0;exitPerimeter=0;" parent="IBZ0rPLe4Yo4xLdav0hi-139" edge="1">
          <mxGeometry width="50" height="50" relative="1" as="geometry">
            <mxPoint x="700" y="230" as="sourcePoint" />
            <mxPoint x="640" y="230" as="targetPoint" />
          </mxGeometry>
        </mxCell>
        <mxCell id="IBZ0rPLe4Yo4xLdav0hi-79" value="" style="endArrow=classic;html=1;rounded=0;" parent="IBZ0rPLe4Yo4xLdav0hi-139" edge="1">
          <mxGeometry width="50" height="50" relative="1" as="geometry">
            <mxPoint x="769" y="249" as="sourcePoint" />
            <mxPoint x="809" y="319" as="targetPoint" />
          </mxGeometry>
        </mxCell>
        <mxCell id="IBZ0rPLe4Yo4xLdav0hi-80" value="&lt;font style=&quot;font-size: 9px;&quot;&gt;REC&lt;/font&gt;" style="text;html=1;align=center;verticalAlign=middle;resizable=0;points=[];autosize=1;strokeColor=none;fillColor=none;" parent="IBZ0rPLe4Yo4xLdav0hi-139" vertex="1">
          <mxGeometry x="546" y="251" width="40" height="30" as="geometry" />
        </mxCell>
        <mxCell id="IBZ0rPLe4Yo4xLdav0hi-81" value="&lt;font style=&quot;font-size: 9px;&quot;&gt;rec_propagation_indicator=[ 1,2,14,3,13,11]&lt;br style=&quot;border-color: var(--border-color);&quot;&gt;neighbours= [14,13,11,10]&lt;br style=&quot;border-color: var(--border-color);&quot;&gt;new_propagation_indicator =[14,13,11,10]&lt;br style=&quot;border-color: var(--border-color);&quot;&gt;target=[10]&lt;/font&gt;" style="shape=process;whiteSpace=wrap;html=1;backgroundOutline=1;size=0.05263157894736842;" parent="IBZ0rPLe4Yo4xLdav0hi-139" vertex="1">
          <mxGeometry x="350" y="700" width="205" height="70" as="geometry" />
        </mxCell>
        <mxCell id="IBZ0rPLe4Yo4xLdav0hi-82" value="" style="endArrow=classic;html=1;rounded=0;fillColor=#D5E8D4;strokeColor=#CCCCCC;" parent="IBZ0rPLe4Yo4xLdav0hi-139" edge="1">
          <mxGeometry width="50" height="50" relative="1" as="geometry">
            <mxPoint x="500" y="620" as="sourcePoint" />
            <mxPoint x="460" y="560" as="targetPoint" />
          </mxGeometry>
        </mxCell>
        <mxCell id="IBZ0rPLe4Yo4xLdav0hi-85" value="" style="endArrow=classic;html=1;rounded=0;fillColor=#D5E8D4;strokeColor=#CCCCCC;" parent="IBZ0rPLe4Yo4xLdav0hi-139" edge="1">
          <mxGeometry width="50" height="50" relative="1" as="geometry">
            <mxPoint x="500" y="622.5" as="sourcePoint" />
            <mxPoint x="530" y="563" as="targetPoint" />
          </mxGeometry>
        </mxCell>
        <mxCell id="IBZ0rPLe4Yo4xLdav0hi-87" value="" style="endArrow=classic;html=1;rounded=0;exitX=0.983;exitY=0.667;exitDx=0;exitDy=0;exitPerimeter=0;" parent="IBZ0rPLe4Yo4xLdav0hi-139" edge="1">
          <mxGeometry width="50" height="50" relative="1" as="geometry">
            <mxPoint x="530" y="663" as="sourcePoint" />
            <mxPoint x="590" y="663" as="targetPoint" />
          </mxGeometry>
        </mxCell>
        <mxCell id="IBZ0rPLe4Yo4xLdav0hi-88" value="&lt;font style=&quot;font-size: 9px;&quot;&gt;REC&lt;/font&gt;" style="text;html=1;align=center;verticalAlign=middle;resizable=0;points=[];autosize=1;strokeColor=none;fillColor=none;" parent="IBZ0rPLe4Yo4xLdav0hi-139" vertex="1">
          <mxGeometry x="580" y="660" width="40" height="30" as="geometry" />
        </mxCell>
        <mxCell id="IBZ0rPLe4Yo4xLdav0hi-89" value="&lt;font style=&quot;font-size: 9px;&quot;&gt;rec_propagation_indicator=[14,13,11,10]&lt;br style=&quot;border-color: var(--border-color);&quot;&gt;neighbours= [11,10,13,12,9]&lt;br style=&quot;border-color: var(--border-color);&quot;&gt;new_propagation_indicator =&amp;nbsp;[11,10,13,12,9]&lt;br style=&quot;border-color: var(--border-color);&quot;&gt;target=[12,9]&lt;/font&gt;" style="shape=process;whiteSpace=wrap;html=1;backgroundOutline=1;size=0.05263157894736842;" parent="IBZ0rPLe4Yo4xLdav0hi-139" vertex="1">
          <mxGeometry x="586" y="700" width="210" height="70" as="geometry" />
        </mxCell>
        <mxCell id="IBZ0rPLe4Yo4xLdav0hi-90" value="" style="endArrow=classic;html=1;rounded=0;fillColor=#D5E8D4;strokeColor=#CCCCCC;" parent="IBZ0rPLe4Yo4xLdav0hi-139" edge="1">
          <mxGeometry width="50" height="50" relative="1" as="geometry">
            <mxPoint x="630" y="625" as="sourcePoint" />
            <mxPoint x="590" y="566" as="targetPoint" />
          </mxGeometry>
        </mxCell>
        <mxCell id="IBZ0rPLe4Yo4xLdav0hi-91" value="" style="endArrow=classic;html=1;rounded=0;fillColor=#D5E8D4;strokeColor=#CCCCCC;" parent="IBZ0rPLe4Yo4xLdav0hi-139" edge="1">
          <mxGeometry width="50" height="50" relative="1" as="geometry">
            <mxPoint x="610" y="649" as="sourcePoint" />
            <mxPoint x="550" y="650" as="targetPoint" />
          </mxGeometry>
        </mxCell>
        <mxCell id="IBZ0rPLe4Yo4xLdav0hi-92" value="" style="endArrow=classic;html=1;rounded=0;exitX=1;exitY=0;exitDx=0;exitDy=0;" parent="IBZ0rPLe4Yo4xLdav0hi-139" source="IBZ0rPLe4Yo4xLdav0hi-11" edge="1">
          <mxGeometry width="50" height="50" relative="1" as="geometry">
            <mxPoint x="680" y="630" as="sourcePoint" />
            <mxPoint x="720" y="570" as="targetPoint" />
          </mxGeometry>
        </mxCell>
        <mxCell id="IBZ0rPLe4Yo4xLdav0hi-93" value="&lt;font style=&quot;font-size: 8px;&quot;&gt;Droped ( free)&amp;nbsp;&lt;/font&gt;" style="text;html=1;align=center;verticalAlign=middle;resizable=0;points=[];autosize=1;strokeColor=none;fillColor=none;" parent="IBZ0rPLe4Yo4xLdav0hi-139" vertex="1">
          <mxGeometry x="670" y="546" width="80" height="30" as="geometry" />
        </mxCell>
        <mxCell id="IBZ0rPLe4Yo4xLdav0hi-94" value="&lt;font style=&quot;font-size: 9px;&quot;&gt;REC&lt;/font&gt;" style="text;html=1;align=center;verticalAlign=middle;resizable=0;points=[];autosize=1;strokeColor=none;fillColor=none;" parent="IBZ0rPLe4Yo4xLdav0hi-139" vertex="1">
          <mxGeometry x="796" y="307.5" width="40" height="30" as="geometry" />
        </mxCell>
        <mxCell id="IBZ0rPLe4Yo4xLdav0hi-95" value="&lt;font style=&quot;font-size: 9px;&quot;&gt;rec_propagation_indicator=[5,4,6,7]&lt;br style=&quot;border-color: var(--border-color);&quot;&gt;neighbours= [5,6,7,8,12]&lt;br style=&quot;border-color: var(--border-color);&quot;&gt;new_propagation_indicator =&amp;nbsp;[5,6,7,8,12]&lt;br style=&quot;border-color: var(--border-color);&quot;&gt;target=[12,8]&lt;/font&gt;" style="shape=process;whiteSpace=wrap;html=1;backgroundOutline=1;size=0.05263157894736842;" parent="IBZ0rPLe4Yo4xLdav0hi-139" vertex="1">
          <mxGeometry x="836" y="260" width="184" height="70" as="geometry" />
        </mxCell>
        <mxCell id="IBZ0rPLe4Yo4xLdav0hi-96" value="" style="endArrow=classic;html=1;rounded=0;fillColor=#D5E8D4;strokeColor=#CCCCCC;exitX=0.828;exitY=-0.009;exitDx=0;exitDy=0;exitPerimeter=0;" parent="IBZ0rPLe4Yo4xLdav0hi-139" edge="1">
          <mxGeometry width="50" height="50" relative="1" as="geometry">
            <mxPoint x="800" y="365.67" as="sourcePoint" />
            <mxPoint x="730" y="366" as="targetPoint" />
          </mxGeometry>
        </mxCell>
        <mxCell id="IBZ0rPLe4Yo4xLdav0hi-97" value="" style="endArrow=classic;html=1;rounded=0;fillColor=#D5E8D4;strokeColor=#CCCCCC;exitX=0.828;exitY=-0.009;exitDx=0;exitDy=0;exitPerimeter=0;" parent="IBZ0rPLe4Yo4xLdav0hi-139" edge="1">
          <mxGeometry width="50" height="50" relative="1" as="geometry">
            <mxPoint x="804" y="354" as="sourcePoint" />
            <mxPoint x="770" y="300" as="targetPoint" />
          </mxGeometry>
        </mxCell>
        <mxCell id="IBZ0rPLe4Yo4xLdav0hi-99" value="" style="endArrow=classic;html=1;rounded=0;exitX=0;exitY=1;exitDx=0;exitDy=0;" parent="IBZ0rPLe4Yo4xLdav0hi-139" source="IBZ0rPLe4Yo4xLdav0hi-14" edge="1">
          <mxGeometry width="50" height="50" relative="1" as="geometry">
            <mxPoint x="798" y="470" as="sourcePoint" />
            <mxPoint x="770" y="470" as="targetPoint" />
          </mxGeometry>
        </mxCell>
        <mxCell id="IBZ0rPLe4Yo4xLdav0hi-100" value="&lt;font style=&quot;font-size: 8px;&quot;&gt;Droped ( free)&amp;nbsp;&lt;/font&gt;" style="text;html=1;align=center;verticalAlign=middle;resizable=0;points=[];autosize=1;strokeColor=none;fillColor=none;" parent="IBZ0rPLe4Yo4xLdav0hi-139" vertex="1">
          <mxGeometry x="750" y="460" width="80" height="30" as="geometry" />
        </mxCell>
        <mxCell id="IBZ0rPLe4Yo4xLdav0hi-101" value="" style="endArrow=classic;html=1;rounded=0;exitX=0.983;exitY=0.667;exitDx=0;exitDy=0;exitPerimeter=0;" parent="IBZ0rPLe4Yo4xLdav0hi-139" edge="1">
          <mxGeometry width="50" height="50" relative="1" as="geometry">
            <mxPoint x="690" y="659.52" as="sourcePoint" />
            <mxPoint x="790" y="660" as="targetPoint" />
          </mxGeometry>
        </mxCell>
        <mxCell id="IBZ0rPLe4Yo4xLdav0hi-102" value="&lt;font style=&quot;font-size: 9px;&quot;&gt;REC&lt;/font&gt;" style="text;html=1;align=center;verticalAlign=middle;resizable=0;points=[];autosize=1;strokeColor=none;fillColor=none;" parent="IBZ0rPLe4Yo4xLdav0hi-139" vertex="1">
          <mxGeometry x="778" y="650" width="40" height="30" as="geometry" />
        </mxCell>
        <mxCell id="IBZ0rPLe4Yo4xLdav0hi-103" value="&lt;font style=&quot;font-size: 9px;&quot;&gt;rec_propagation_indicator=[11,10,13,12,9]&lt;br style=&quot;border-color: var(--border-color);&quot;&gt;neighbours= [9,10,8,12]&lt;br style=&quot;border-color: var(--border-color);&quot;&gt;new_propagation_indicator =&amp;nbsp;[9,10,8,12]&lt;br style=&quot;border-color: var(--border-color);&quot;&gt;target=[8]&lt;/font&gt;" style="shape=process;whiteSpace=wrap;html=1;backgroundOutline=1;size=0.05263157894736842;" parent="IBZ0rPLe4Yo4xLdav0hi-139" vertex="1">
          <mxGeometry x="850" y="700" width="200" height="70" as="geometry" />
        </mxCell>
        <mxCell id="IBZ0rPLe4Yo4xLdav0hi-105" value="" style="endArrow=classic;html=1;rounded=0;exitX=0.983;exitY=0.667;exitDx=0;exitDy=0;exitPerimeter=0;" parent="IBZ0rPLe4Yo4xLdav0hi-139" edge="1">
          <mxGeometry width="50" height="50" relative="1" as="geometry">
            <mxPoint x="866" y="400" as="sourcePoint" />
            <mxPoint x="910" y="470" as="targetPoint" />
          </mxGeometry>
        </mxCell>
        <mxCell id="IBZ0rPLe4Yo4xLdav0hi-106" value="&lt;font style=&quot;font-size: 9px;&quot;&gt;REC&lt;/font&gt;" style="text;html=1;align=center;verticalAlign=middle;resizable=0;points=[];autosize=1;strokeColor=none;fillColor=none;" parent="IBZ0rPLe4Yo4xLdav0hi-139" vertex="1">
          <mxGeometry x="879" y="459" width="40" height="30" as="geometry" />
        </mxCell>
        <mxCell id="IBZ0rPLe4Yo4xLdav0hi-107" value="&lt;font style=&quot;font-size: 9px;&quot;&gt;rec_propagation_indicator=&amp;nbsp;[5,6,7,8,12]&lt;br style=&quot;border-color: var(--border-color);&quot;&gt;neighbours= [7,8,12,9]&lt;br style=&quot;border-color: var(--border-color);&quot;&gt;new_propagation_indicator =&amp;nbsp;[7,8,12,9]&lt;br style=&quot;border-color: var(--border-color);&quot;&gt;target=[9]&lt;/font&gt;" style="shape=process;whiteSpace=wrap;html=1;backgroundOutline=1;size=0.05263157894736842;" parent="IBZ0rPLe4Yo4xLdav0hi-139" vertex="1">
          <mxGeometry x="960" y="470" width="180" height="70" as="geometry" />
        </mxCell>
        <mxCell id="IBZ0rPLe4Yo4xLdav0hi-108" value="" style="endArrow=classic;html=1;rounded=0;fillColor=#D5E8D4;strokeColor=#CCCCCC;" parent="IBZ0rPLe4Yo4xLdav0hi-139" edge="1">
          <mxGeometry width="50" height="50" relative="1" as="geometry">
            <mxPoint x="890" y="490" as="sourcePoint" />
            <mxPoint x="850" y="431" as="targetPoint" />
          </mxGeometry>
        </mxCell>
        <mxCell id="IBZ0rPLe4Yo4xLdav0hi-109" value="" style="endArrow=classic;html=1;rounded=0;fillColor=#D5E8D4;strokeColor=#CCCCCC;" parent="IBZ0rPLe4Yo4xLdav0hi-139" edge="1">
          <mxGeometry width="50" height="50" relative="1" as="geometry">
            <mxPoint x="880" y="524.71" as="sourcePoint" />
            <mxPoint x="804" y="525.21" as="targetPoint" />
          </mxGeometry>
        </mxCell>
        <mxCell id="IBZ0rPLe4Yo4xLdav0hi-110" value="This received before the message of 9&amp;nbsp;" style="text;html=1;align=center;verticalAlign=middle;resizable=0;points=[];autosize=1;strokeColor=none;fillColor=none;" parent="IBZ0rPLe4Yo4xLdav0hi-139" vertex="1">
          <mxGeometry x="950" y="546" width="230" height="30" as="geometry" />
        </mxCell>
        <mxCell id="IBZ0rPLe4Yo4xLdav0hi-111" value="" style="endArrow=classic;html=1;rounded=0;exitX=0;exitY=1;exitDx=0;exitDy=0;strokeColor=#FF3333;" parent="IBZ0rPLe4Yo4xLdav0hi-139" edge="1">
          <mxGeometry width="50" height="50" relative="1" as="geometry">
            <mxPoint x="902" y="556.5" as="sourcePoint" />
            <mxPoint x="870" y="610" as="targetPoint" />
          </mxGeometry>
        </mxCell>
        <mxCell id="IBZ0rPLe4Yo4xLdav0hi-112" value="&lt;font style=&quot;font-size: 9px;&quot;&gt;REC&lt;/font&gt;" style="text;html=1;align=center;verticalAlign=middle;resizable=0;points=[];autosize=1;strokeColor=none;fillColor=none;" parent="IBZ0rPLe4Yo4xLdav0hi-139" vertex="1">
          <mxGeometry x="836" y="590" width="40" height="30" as="geometry" />
        </mxCell>
        <mxCell id="IBZ0rPLe4Yo4xLdav0hi-116" value="&lt;font style=&quot;font-size: 9px;&quot;&gt;9 Targeted From 8&amp;nbsp;&lt;br&gt;8 is not rec_propagation_indicator&lt;br&gt;so forward it&amp;nbsp;&amp;nbsp;&lt;br&gt;&amp;nbsp;&lt;/font&gt;" style="text;html=1;align=center;verticalAlign=middle;resizable=0;points=[];autosize=1;strokeColor=none;fillColor=none;" parent="IBZ0rPLe4Yo4xLdav0hi-139" vertex="1">
          <mxGeometry x="890" y="640" width="160" height="70" as="geometry" />
        </mxCell>
        <mxCell id="IBZ0rPLe4Yo4xLdav0hi-117" value="" style="endArrow=classic;html=1;rounded=0;exitX=0.82;exitY=0.953;exitDx=0;exitDy=0;exitPerimeter=0;fillColor=#D5E8D4;strokeColor=#CCCCCC;" parent="IBZ0rPLe4Yo4xLdav0hi-139" edge="1">
          <mxGeometry width="50" height="50" relative="1" as="geometry">
            <mxPoint x="445" y="390" as="sourcePoint" />
            <mxPoint x="400" y="470" as="targetPoint" />
          </mxGeometry>
        </mxCell>
        <mxCell id="IBZ0rPLe4Yo4xLdav0hi-118" value="&lt;font style=&quot;font-size: 9px;&quot;&gt;rec_propagation_indicator=[7,8,12,9]&lt;br style=&quot;border-color: var(--border-color);&quot;&gt;neighbours= [9,10,8,12]&lt;br style=&quot;border-color: var(--border-color);&quot;&gt;new_propagation_indicator = [9,10,8,12]&lt;br style=&quot;border-color: var(--border-color);&quot;&gt;target=[10]&lt;/font&gt;" style="shape=process;whiteSpace=wrap;html=1;backgroundOutline=1;size=0.05263157894736842;strokeColor=#FF0000;" parent="IBZ0rPLe4Yo4xLdav0hi-139" vertex="1">
          <mxGeometry x="850" y="780" width="200" height="70" as="geometry" />
        </mxCell>
        <mxCell id="IBZ0rPLe4Yo4xLdav0hi-119" value="" style="endArrow=classic;html=1;rounded=0;exitX=0;exitY=1;exitDx=0;exitDy=0;strokeColor=#FF3333;" parent="IBZ0rPLe4Yo4xLdav0hi-139" edge="1">
          <mxGeometry width="50" height="50" relative="1" as="geometry">
            <mxPoint x="849" y="810" as="sourcePoint" />
            <mxPoint x="810" y="810" as="targetPoint" />
          </mxGeometry>
        </mxCell>
        <mxCell id="IBZ0rPLe4Yo4xLdav0hi-120" value="&lt;font style=&quot;font-size: 9px;&quot;&gt;rec_propagation_indicator=[9,10,8,12]&lt;br style=&quot;border-color: var(--border-color);&quot;&gt;neighbours= [11,10,13,12,9]&lt;br style=&quot;border-color: var(--border-color);&quot;&gt;new_propagation_indicator =&amp;nbsp;[11,10,13,12,9]&lt;br style=&quot;border-color: var(--border-color);&quot;&gt;target=[11,13]&lt;/font&gt;" style="shape=process;whiteSpace=wrap;html=1;backgroundOutline=1;size=0.05263157894736842;strokeColor=#FF0000;" parent="IBZ0rPLe4Yo4xLdav0hi-139" vertex="1">
          <mxGeometry x="585" y="780" width="210" height="70" as="geometry" />
        </mxCell>
        <mxCell id="IBZ0rPLe4Yo4xLdav0hi-121" value="&lt;font style=&quot;font-size: 9px;&quot;&gt;REC&lt;/font&gt;" style="text;html=1;align=center;verticalAlign=middle;resizable=0;points=[];autosize=1;strokeColor=none;fillColor=none;" parent="IBZ0rPLe4Yo4xLdav0hi-139" vertex="1">
          <mxGeometry x="790" y="780" width="40" height="30" as="geometry" />
        </mxCell>
        <mxCell id="IBZ0rPLe4Yo4xLdav0hi-123" value="&lt;font style=&quot;font-size: 9px;&quot;&gt;10 Targeted From 9&amp;nbsp;&lt;br&gt;9 is not rec_propagation_indicator&lt;br&gt;so forward it&amp;nbsp;&amp;nbsp;&lt;br&gt;&amp;nbsp;&lt;/font&gt;" style="text;html=1;align=center;verticalAlign=middle;resizable=0;points=[];autosize=1;strokeColor=none;fillColor=none;" parent="IBZ0rPLe4Yo4xLdav0hi-139" vertex="1">
          <mxGeometry x="660" y="860" width="160" height="70" as="geometry" />
        </mxCell>
        <mxCell id="IBZ0rPLe4Yo4xLdav0hi-124" value="" style="endArrow=classic;html=1;rounded=0;exitX=0;exitY=1;exitDx=0;exitDy=0;strokeColor=#FF3333;" parent="IBZ0rPLe4Yo4xLdav0hi-139" edge="1">
          <mxGeometry width="50" height="50" relative="1" as="geometry">
            <mxPoint x="585" y="814.6299999999999" as="sourcePoint" />
            <mxPoint x="525" y="814.92" as="targetPoint" />
          </mxGeometry>
        </mxCell>
        <mxCell id="IBZ0rPLe4Yo4xLdav0hi-125" value="&lt;font style=&quot;font-size: 9px;&quot;&gt;REC&lt;/font&gt;" style="text;html=1;align=center;verticalAlign=middle;resizable=0;points=[];autosize=1;strokeColor=none;fillColor=none;" parent="IBZ0rPLe4Yo4xLdav0hi-139" vertex="1">
          <mxGeometry x="520" y="785" width="40" height="30" as="geometry" />
        </mxCell>
        <mxCell id="IBZ0rPLe4Yo4xLdav0hi-126" value="&lt;font style=&quot;font-size: 9px;&quot;&gt;11Targeted From 10&amp;nbsp;&lt;br&gt;10 is not rec_propagation_indicator&lt;br&gt;so forward it&amp;nbsp;&amp;nbsp;&lt;br&gt;&amp;nbsp;&lt;/font&gt;" style="text;html=1;align=center;verticalAlign=middle;resizable=0;points=[];autosize=1;strokeColor=none;fillColor=none;" parent="IBZ0rPLe4Yo4xLdav0hi-139" vertex="1">
          <mxGeometry x="405" y="860" width="160" height="70" as="geometry" />
        </mxCell>
        <mxCell id="IBZ0rPLe4Yo4xLdav0hi-127" value="&lt;font style=&quot;font-size: 9px;&quot;&gt;rec_propagation_indicator=[11,10,13,12,9]&lt;br style=&quot;border-color: var(--border-color);&quot;&gt;neighbours= [14,13,11,10]&lt;br style=&quot;border-color: var(--border-color);&quot;&gt;new_propagation_indicator =[14,13,11,10]&lt;br style=&quot;border-color: var(--border-color);&quot;&gt;target=[14]&lt;/font&gt;" style="shape=process;whiteSpace=wrap;html=1;backgroundOutline=1;size=0.05263157894736842;strokeColor=#FF3333;" parent="IBZ0rPLe4Yo4xLdav0hi-139" vertex="1">
          <mxGeometry x="320" y="785" width="200" height="65" as="geometry" />
        </mxCell>
        <mxCell id="IBZ0rPLe4Yo4xLdav0hi-129" value="" style="endArrow=classic;html=1;rounded=0;exitX=0;exitY=1;exitDx=0;exitDy=0;strokeColor=#FF3333;" parent="IBZ0rPLe4Yo4xLdav0hi-139" edge="1">
          <mxGeometry width="50" height="50" relative="1" as="geometry">
            <mxPoint x="320" y="796.15" as="sourcePoint" />
            <mxPoint x="250" y="713.85" as="targetPoint" />
          </mxGeometry>
        </mxCell>
        <mxCell id="IBZ0rPLe4Yo4xLdav0hi-130" value="&lt;font style=&quot;font-size: 9px;&quot;&gt;REC&lt;/font&gt;" style="text;html=1;align=center;verticalAlign=middle;resizable=0;points=[];autosize=1;strokeColor=none;fillColor=none;" parent="IBZ0rPLe4Yo4xLdav0hi-139" vertex="1">
          <mxGeometry x="210" y="700" width="40" height="30" as="geometry" />
        </mxCell>
        <mxCell id="IBZ0rPLe4Yo4xLdav0hi-131" value="&lt;font style=&quot;font-size: 9px;&quot;&gt;rec_propagation_indicator=[14,13,11,10]&lt;br style=&quot;border-color: var(--border-color);&quot;&gt;neighbours= [1,2,14,3,13,11]&lt;br style=&quot;border-color: var(--border-color);&quot;&gt;new_propagation_indicator =[ 1,2,14,3,13,11]&lt;br style=&quot;border-color: var(--border-color);&quot;&gt;target=[1,2,3]&lt;/font&gt;" style="shape=process;whiteSpace=wrap;html=1;backgroundOutline=1;size=0.05263157894736842;strokeColor=#FF3333;" parent="IBZ0rPLe4Yo4xLdav0hi-139" vertex="1">
          <mxGeometry x="120" y="640" width="210" height="65" as="geometry" />
        </mxCell>
        <mxCell id="IBZ0rPLe4Yo4xLdav0hi-132" value="&lt;font style=&quot;font-size: 9px;&quot;&gt;14 Targeted From 11&amp;nbsp;&lt;br&gt;11 is not rec_propagation_indicator&lt;br&gt;so forward it&amp;nbsp;&amp;nbsp;&lt;br&gt;&amp;nbsp;&lt;/font&gt;" style="text;html=1;align=center;verticalAlign=middle;resizable=0;points=[];autosize=1;strokeColor=none;fillColor=none;" parent="IBZ0rPLe4Yo4xLdav0hi-139" vertex="1">
          <mxGeometry x="145" y="750" width="160" height="70" as="geometry" />
        </mxCell>
        <mxCell id="IBZ0rPLe4Yo4xLdav0hi-134" value="" style="endArrow=classic;html=1;rounded=0;strokeColor=#FF3333;exitX=0.287;exitY=-0.012;exitDx=0;exitDy=0;exitPerimeter=0;" parent="IBZ0rPLe4Yo4xLdav0hi-139" source="IBZ0rPLe4Yo4xLdav0hi-131" edge="1">
          <mxGeometry width="50" height="50" relative="1" as="geometry">
            <mxPoint x="180" y="630" as="sourcePoint" />
            <mxPoint x="180" y="570" as="targetPoint" />
          </mxGeometry>
        </mxCell>
        <mxCell id="IBZ0rPLe4Yo4xLdav0hi-135" value="&lt;b&gt;MSG Circled&amp;nbsp;&lt;br&gt;Border&#39;s detected&amp;nbsp;&lt;/b&gt;" style="text;html=1;align=center;verticalAlign=middle;resizable=0;points=[];autosize=1;strokeColor=none;fillColor=none;" parent="IBZ0rPLe4Yo4xLdav0hi-139" vertex="1">
          <mxGeometry x="20" y="585" width="130" height="40" as="geometry" />
        </mxCell>
        <mxCell id="IBZ0rPLe4Yo4xLdav0hi-136" value="&lt;font style=&quot;font-size: 9px;&quot;&gt;rec_propagation_indicator= [ 1,2,14]&lt;br style=&quot;border-color: var(--border-color);&quot;&gt;neighbours= [1,2,14,3]&lt;br style=&quot;border-color: var(--border-color);&quot;&gt;new_propagation_indicator =[ 1,2,14,3]&lt;br style=&quot;border-color: var(--border-color);&quot;&gt;target=[ 1,2,14]&lt;/font&gt;" style="shape=process;whiteSpace=wrap;html=1;backgroundOutline=1;size=0.05263157894736842;" parent="IBZ0rPLe4Yo4xLdav0hi-139" vertex="1">
          <mxGeometry x="-20" y="420" width="180" height="90" as="geometry" />
        </mxCell>
        <mxCell id="IBZ0rPLe4Yo4xLdav0hi-138" value="REC" style="text;html=1;align=center;verticalAlign=middle;resizable=0;points=[];autosize=1;strokeColor=none;fillColor=none;" parent="IBZ0rPLe4Yo4xLdav0hi-139" vertex="1">
          <mxGeometry x="140" y="546" width="50" height="30" as="geometry" />
        </mxCell>
      </root>
    </mxGraphModel>
  </diagram>
</mxfile>
